<?xml version="1.0" encoding="utf-8"?>
<!-- Generator: Adobe Illustrator 16.0.0, SVG Export Plug-In . SVG Version: 6.00 Build 0)  -->
<!DOCTYPE svg PUBLIC "-//W3C//DTD SVG 1.1//EN" "http://www.w3.org/Graphics/SVG/1.1/DTD/svg11.dtd">
<svg version="1.1" xmlns="http://www.w3.org/2000/svg" xmlns:xlink="http://www.w3.org/1999/xlink" x="0px" y="0px"
	 width="36.279px" height="49.121px" viewBox="0 0 36.279 49.121" enable-background="new 0 0 36.279 49.121" xml:space="preserve">
<g id="Layer_1">
	<g>
		<g>
			<g>
				<path fill="#008A2E" d="M0.392,3.626c6.262,5.627,13.161,12.208,16.741,19.942c0.452,0.977,1.665,0.66,2.166-0.121
					c4.821-7.519,9.826-15.914,16.564-21.86c1.236-1.092-0.57-2.166-1.652-1.211c-6.872,6.065-12.031,14.709-16.943,22.37
					c0.722-0.04,1.443-0.081,2.166-0.121C15.685,14.527,8.657,7.712,2.085,1.806C1.135,0.952-0.659,2.682,0.392,3.626L0.392,3.626z"
					/>
			</g>
		</g>
		<g>
			<g>
				<path fill="#008A2E" d="M9.229,2.72c3.013,2.712,6.188,5.825,7.942,9.527c0.413,0.872,1.718,0.153,2.051-0.366
					c2.282-3.555,4.641-7.457,7.803-10.294c1.228-1.103-0.576-2.177-1.652-1.211c-3.303,2.965-5.8,7.093-8.182,10.804
					c0.684-0.122,1.367-0.244,2.051-0.366c-1.823-3.849-5.184-7.091-8.319-9.914C9.974,0.045,8.18,1.774,9.229,2.72L9.229,2.72z"/>
			</g>
		</g>
	</g>
	<g>
		<g>
			<g>
				<path fill="#008A2E" d="M2.064,46.853c6.492-5.835,13.524-12.621,17.234-20.636c-0.684,0.122-1.367,0.244-2.051,0.366
					C22.17,34.26,27.306,42.815,34.19,48.892c0.958,0.846,2.752-0.886,1.693-1.82c-6.726-5.936-11.754-14.418-16.565-21.922
					c-0.471-0.734-1.74-0.304-2.051,0.366C13.65,33.33,6.754,39.942,0.412,45.642C-0.815,46.745,0.988,47.819,2.064,46.853
					L2.064,46.853z"/>
			</g>
		</g>
		<g>
			<g>
				<path fill="#008A2E" d="M10.902,47.759c3.148-2.834,6.487-6.106,8.32-9.976c-0.684,0.122-1.367,0.244-2.051,0.366
					c2.387,3.718,4.871,7.772,8.181,10.742c0.95,0.853,2.745-0.877,1.693-1.82c-3.156-2.832-5.526-6.808-7.804-10.355
					c-0.474-0.737-1.735-0.3-2.051,0.366c-1.744,3.68-4.941,6.767-7.941,9.466C8.023,47.652,9.827,48.727,10.902,47.759
					L10.902,47.759z"/>
			</g>
		</g>
	</g>
</g>
<g id="Layer_2">
</g>
</svg>
