<?xml version="1.0" encoding="utf-8"?>
<!-- Generator: Adobe Illustrator 16.0.0, SVG Export Plug-In . SVG Version: 6.00 Build 0)  -->
<!DOCTYPE svg PUBLIC "-//W3C//DTD SVG 1.1//EN" "http://www.w3.org/Graphics/SVG/1.1/DTD/svg11.dtd">
<svg version="1.1" xmlns="http://www.w3.org/2000/svg" xmlns:xlink="http://www.w3.org/1999/xlink" x="0px" y="0px"
	 width="130.799px" height="38.09px" viewBox="0 0 130.799 38.09" enable-background="new 0 0 130.799 38.09" xml:space="preserve">
<g id="Layer_1">
	<g>
		<g>
			<path fill="#FFFFFF" d="M20.957,37.902c-5.768-6.418-12.464-13.38-20.381-17.043c-1.429-0.661,1.475-3.533,1.986-3.861
				C9.646,12.455,18.05,7.416,23.771,0.937c2.25-2.549,2.371,0.733,0.908,2.39c-6.268,7.1-15.104,12.37-23.021,17.446
				c0.662-1.287,1.324-2.574,1.986-3.861c7.916,3.663,14.613,10.625,20.381,17.043C25.177,35.235,21.912,38.965,20.957,37.902
				L20.957,37.902z"/>
		</g>
		<g>
			<path fill="#FFFFFF" d="M0.6,17.232c20.192,0,40.386,0,60.578,0c1.48,0,5.027,3.307,3.023,3.307c-20.193,0-40.387,0-60.58,0
				C2.142,20.539-1.406,17.232,0.6,17.232L0.6,17.232z"/>
		</g>
	</g>
	<g>
		<g>
			<path fill="#FFFFFF" d="M109.842,37.902c5.768-6.418,12.464-13.38,20.381-17.043c1.429-0.661-1.475-3.533-1.986-3.861
				c-7.084-4.543-15.487-9.582-21.208-16.062c-2.25-2.549-2.371,0.733-0.908,2.39c6.268,7.1,15.104,12.37,23.021,17.446
				c-0.662-1.287-1.324-2.574-1.986-3.861c-7.916,3.663-14.613,10.625-20.381,17.043C105.622,35.235,108.887,38.965,109.842,37.902
				L109.842,37.902z"/>
		</g>
		<g>
			<path fill="#FFFFFF" d="M130.199,17.232c-20.192,0-40.386,0-60.578,0c-1.48,0-5.027,3.307-3.023,3.307c20.193,0,40.387,0,60.58,0
				C128.657,20.539,132.205,17.232,130.199,17.232L130.199,17.232z"/>
		</g>
	</g>
</g>
<g id="Layer_2">
</g>
</svg>
