<?xml version="1.0" encoding="utf-8"?>
<!-- Generator: Adobe Illustrator 16.0.0, SVG Export Plug-In . SVG Version: 6.00 Build 0)  -->
<!DOCTYPE svg PUBLIC "-//W3C//DTD SVG 1.1//EN" "http://www.w3.org/Graphics/SVG/1.1/DTD/svg11.dtd">
<svg version="1.1" id="Layer_1" xmlns="http://www.w3.org/2000/svg" xmlns:xlink="http://www.w3.org/1999/xlink" x="0px" y="0px"
	 width="370.187px" height="72.201px" viewBox="704.505 1.477 370.187 72.201"
	 enable-background="new 704.505 1.477 370.187 72.201" xml:space="preserve">
<g id="Layer_2">
</g>
<g>
	<path d="M1043.515,31.274c1.139,3.251,3.398,5.424,6.062,5.424s4.923-2.172,6.062-5.424c1.202,0.568,2.364,0.863,3.41,0.863
		c1.222,0,2.285-0.388,3.066-1.169c2.198-2.198,1.173-6.669-2.336-10.179c-1.57-1.569-3.396-2.668-5.133-3.176
		c0.41-0.798,0.638-1.688,0.638-2.605c0-1.736-0.795-3.275-2.021-4.323l0.849-3.392l-2.216-0.554l-0.706,2.821
		c-0.515-0.153-1.049-0.26-1.612-0.26s-1.098,0.107-1.612,0.26l-0.704-2.821l-2.216,0.554l0.849,3.392
		c-1.229,1.048-2.023,2.586-2.023,4.323c0,0.916,0.227,1.804,0.636,2.602c-1.735,0.507-3.563,1.614-5.129,3.181
		c-3.509,3.509-4.534,7.981-2.336,10.18c0.781,0.781,1.845,1.169,3.066,1.169C1041.151,32.137,1042.315,31.841,1043.515,31.274
		L1043.515,31.274z M1049.577,18.433c1.308,0,2.504,1.026,3.345,2.626c-0.937-0.193-2.066-0.343-3.345-0.343
		s-2.411,0.15-3.345,0.343C1047.074,19.459,1048.27,18.433,1049.577,18.433L1049.577,18.433z M1045.309,23.663
		c0.903-0.296,2.394-0.664,4.268-0.664c1.866,0,3.35,0.361,4.269,0.664c0.157,0.718,0.253,1.477,0.283,2.266
		c-1.092-0.32-2.655-0.646-4.552-0.646c-1.896,0-3.46,0.326-4.552,0.646C1045.055,25.139,1045.152,24.38,1045.309,23.663
		L1045.309,23.663z M1054.008,28.285c-0.119,0.829-0.313,1.611-0.569,2.322c-0.97-0.353-2.396-0.759-3.861-0.759
		s-2.892,0.406-3.861,0.759c-0.257-0.712-0.452-1.494-0.57-2.326c0.869-0.301,2.425-0.716,4.432-0.716
		C1051.566,27.566,1053.133,27.985,1054.008,28.285L1054.008,28.285z M1049.577,34.415c-1.052,0-2.031-0.666-2.814-1.757
		c0.772-0.262,1.802-0.526,2.814-0.526s2.043,0.264,2.814,0.526C1051.609,33.749,1050.629,34.415,1049.577,34.415L1049.577,34.415z
		 M1060.499,29.354c-0.774,0.776-2.471,0.622-4.292-0.346c0.139-0.825,0.219-1.686,0.219-2.584c0-2.371-0.515-4.523-1.382-6.245
		c1.055,0.491,2.145,1.25,3.119,2.225C1060.898,25.139,1061.59,28.262,1060.499,29.354L1060.499,29.354z M1053.003,15.008
		c0,0.724-0.233,1.42-0.649,1.999c-0.846-0.548-1.782-0.857-2.776-0.857c-0.995,0-1.931,0.309-2.776,0.857
		c-0.416-0.578-0.648-1.275-0.648-1.999c0-1.887,1.537-3.424,3.425-3.424C1051.466,11.583,1053.003,13.12,1053.003,15.008
		L1053.003,15.008z M1038.655,29.354c-1.091-1.091-0.399-4.214,2.336-6.951c0.974-0.972,2.063-1.733,3.12-2.221
		c-0.868,1.72-1.383,3.872-1.383,6.242c0,0.898,0.08,1.759,0.219,2.584C1041.127,29.976,1039.428,30.131,1038.655,29.354
		L1038.655,29.354z M1038.655,29.354"/>
	<path d="M1074.691,34.415v-2.283c0-1.259-1.023-2.284-2.281-2.284h-5.168c1.109-2.441,1.742-5.141,1.742-7.991
		c0-10.701-8.706-19.407-19.407-19.407s-19.407,8.706-19.407,19.407c0,2.85,0.633,5.55,1.742,7.991h-5.167
		c-1.259,0-2.282,1.024-2.282,2.284v2.283c0,1.259,1.023,2.283,2.282,2.283v25.115c-1.259,0-2.282,1.024-2.282,2.283v2.283
		c0,1.26,1.023,2.283,2.282,2.283v1.142c0,1.888,1.537,3.425,3.425,3.425h4.567c1.887,0,3.424-1.537,3.424-3.425v-1.142h22.832
		v1.142c0,1.888,1.537,3.425,3.424,3.425h4.567c1.889,0,3.426-1.537,3.426-3.425v-1.142c1.258,0,2.281-1.023,2.281-2.283v-2.283
		c0-1.259-1.023-2.283-2.281-2.283V36.698C1073.668,36.698,1074.691,35.674,1074.691,34.415L1074.691,34.415z M1072.41,32.132v2.283
		h-8.063c0.61-0.717,1.162-1.481,1.664-2.283H1072.41z M1049.577,4.734c9.441,0,17.124,7.681,17.124,17.124
		c0,9.442-7.683,17.123-17.124,17.123s-17.123-7.681-17.123-17.123C1032.454,12.415,1040.135,4.734,1049.577,4.734L1049.577,4.734z
		 M1026.745,32.132h6.398c0.503,0.801,1.054,1.566,1.665,2.283h-8.063V32.132z M1035.877,69.804c0,0.629-0.512,1.142-1.14,1.142
		h-4.567c-0.628,0-1.142-0.513-1.142-1.142v-1.142h6.849V69.804z M1070.126,69.804c0,0.629-0.514,1.142-1.142,1.142h-4.567
		c-0.628,0-1.14-0.513-1.14-1.142v-1.142h6.849V69.804z M1072.41,66.379h-45.665v-2.283h45.665V66.379z M1029.028,61.813V50.397
		h12.558v1.143c0,1.887,1.537,3.424,3.424,3.424h9.135c1.887,0,3.424-1.537,3.424-3.424v-1.143h12.558v11.416H1029.028z
		 M1043.87,50.397h11.414v1.143c0,0.628-0.512,1.142-1.14,1.142h-9.135c-0.628,0-1.14-0.514-1.14-1.142V50.397z M1070.126,48.114
		h-41.098V36.698h8.069c3.377,2.845,7.729,4.567,12.479,4.567s9.103-1.722,12.479-4.567h8.069V48.114z M1070.126,48.114"/>
</g>
<g>
	<path d="M1003.561,37.532c-0.455-0.455-1.191-0.455-1.645,0l-1.503,1.503L965.198,3.821c-0.455-0.455-1.19-0.455-1.644,0
		l-3.487,3.487c-0.107,0.108-0.193,0.236-0.251,0.377c-0.06,0.14-0.09,0.292-0.09,0.444v44.39c-1.394,0.485-2.326,1.798-2.326,3.272
		c0,1.476,0.933,2.788,2.326,3.273v0.214H957.4v2.325h2.326v5.679c-0.103,0.381-0.457,1.313-1.109,1.512
		c-0.39,0.116-1.546,0.137-3.881-2.199l-1.645,1.643c1.961,1.964,3.671,2.93,5.194,2.93c0.34,0,0.68-0.049,1.007-0.148
		c0.703-0.22,1.321-0.657,1.762-1.25c0.622,0.716,1.474,1.194,2.405,1.354c0.178,0.026,0.355,0.04,0.535,0.04
		c1.567,0,3.171-1.014,4.776-3.022l-1.815-1.453c-1.197,1.496-2.315,2.252-3.149,2.134c-0.832-0.117-1.486-1.11-1.756-1.659v-5.559
		h2.325v-2.325h-2.325v-0.214c1.393-0.485,2.327-1.798,2.327-3.273c0-1.475-0.935-2.787-2.327-3.272V19.83
		c0.693,1.23,1.707,2.248,2.935,2.947c2.183,1.059,4.715,1.14,6.96,0.224c-0.726,3.666-0.203,6.407,1.557,8.166
		c2.456,2.457,6.624,2.193,9.06,1.765c-0.849,4.162-0.248,7.384,1.79,9.594c2.506,2.719,6.579,3.178,9.462,3.109l-0.034,0.033
		c-0.454,0.454-0.454,1.19,0,1.644l2.666,2.668l-2.008,2.005c-1.978-1.072-4.352-1.124-6.376-0.139
		c-2.023,0.987-3.445,2.889-3.819,5.108h-4.753c-0.642,0-1.164,0.521-1.164,1.162v3.487h-1.16c-0.642,0-1.164,0.521-1.164,1.162
		v9.301c0,0.642,0.522,1.162,1.164,1.162h4.648c0.641,0,1.163-0.521,1.163-1.162v-9.301c0-0.642-0.522-1.162-1.163-1.162h-1.161
		v-2.325h3.59c0.359,2.173,1.722,4.049,3.676,5.061c1.954,1.013,4.274,1.043,6.255,0.081c1.979-0.961,3.391-2.802,3.804-4.964
		c0.412-2.162-0.219-4.394-1.704-6.018l1.817-1.816l12.545,12.548c2.712,2.647,7.046,2.622,9.725-0.057
		c2.68-2.68,2.705-7.015,0.058-9.725L1003.561,37.532z M960.887,56.954c-0.468,0-0.894-0.283-1.073-0.718s-0.079-0.936,0.253-1.267
		c0.333-0.332,0.831-0.433,1.268-0.252c0.434,0.18,0.716,0.604,0.716,1.073C962.051,56.434,961.529,56.954,960.887,56.954
		L960.887,56.954z M980.652,70.904h-2.327v-6.975h2.327V70.904z M991.114,62.766c-2.114-0.007-3.958-1.439-4.485-3.487h4.485v-2.324
		h-4.485c0.446-1.714,1.83-3.023,3.564-3.379c1.736-0.353,3.521,0.312,4.604,1.713c1.079,1.403,1.27,3.299,0.487,4.888
		C994.504,61.763,992.885,62.769,991.114,62.766L991.114,62.766z M966.103,20.74c-2.25-1.236-3.595-4.572-3.952-9.704l9.566,9.566
		C969.958,21.476,967.903,21.527,966.103,20.74L966.103,20.74z M975.141,29.519c-1.221-1.222-1.494-3.362-0.851-6.346l7.522,7.527
		C979.655,31.03,976.685,31.067,975.141,29.519L975.141,29.519z M962.532,8.129l1.844-1.843l34.394,34.393l-1.843,1.844
		L962.532,8.129z M986.059,40.95c-1.46-1.583-1.873-4.032-1.264-7.27l9.605,9.605C991.955,43.427,988.153,43.221,986.059,40.95
		L986.059,40.95z M996.244,46.491l6.494-6.493l1.843,1.844l-6.491,6.493L996.244,46.491z M1018.773,62.526
		c-1.794,1.791-4.7,1.791-6.494,0L999.731,49.98l6.494-6.494l12.548,12.547C1020.562,57.826,1020.562,60.732,1018.773,62.526
		L1018.773,62.526z M1018.773,62.526"/>
	<path d="M1005.391,49.641l1.645-1.645l6.973,6.974l-1.642,1.644L1005.391,49.641z M1005.391,49.641"/>
	<path d="M1013.53,57.778l1.642-1.645l2.325,2.324l-1.643,1.645L1013.53,57.778z M1013.53,57.778"/>
</g>
<g>
	<path d="M902.527,29.606c-0.656-0.718-1.591-1.139-2.563-1.154c-1.958-0.026-3.578,1.536-3.611,3.492
		c-0.011,0.631,0.493,1.15,1.123,1.162c0.006,0,0.013,0,0.02,0c0.622,0,1.132-0.5,1.141-1.124c0.013-0.698,0.587-1.259,1.293-1.246
		c0.352,0.004,0.677,0.151,0.914,0.411c0.426,0.465,1.147,0.498,1.613,0.073S902.953,30.073,902.527,29.606L902.527,29.606z
		 M902.527,29.606"/>
	<path d="M908.603,33.329c-0.349-0.822-1.03-1.472-1.868-1.781c-1.688-0.623-3.567,0.242-4.192,1.926
		c-0.22,0.591,0.083,1.249,0.675,1.467c0.13,0.049,0.265,0.072,0.396,0.072c0.464,0,0.9-0.285,1.071-0.745
		c0.188-0.505,0.753-0.764,1.257-0.578c0.255,0.094,0.455,0.283,0.56,0.533c0.247,0.58,0.919,0.851,1.499,0.604
		C908.581,34.58,908.85,33.909,908.603,33.329L908.603,33.329z M908.603,33.329"/>
	<path d="M915.964,23.215c-0.445-0.446-1.17-0.445-1.615,0.001l-1.075,1.079c-0.446,0.447-0.446,1.169,0.002,1.615
		c0.222,0.222,0.513,0.333,0.807,0.333c0.291,0,0.585-0.111,0.807-0.335l1.077-1.079C916.412,24.384,916.41,23.661,915.964,23.215
		L915.964,23.215z M915.964,23.215"/>
	<path d="M908.859,37.958h-1.521c-0.632,0-1.143,0.51-1.143,1.141s0.511,1.143,1.143,1.143h1.521c0.632,0,1.143-0.512,1.143-1.143
		S909.491,37.958,908.859,37.958L908.859,37.958z M908.859,37.958"/>
	<path d="M920.53,37.958h-1.523c-0.63,0-1.141,0.51-1.141,1.141s0.511,1.143,1.141,1.143h1.523c0.63,0,1.141-0.512,1.141-1.143
		S921.16,37.958,920.53,37.958L920.53,37.958z M920.53,37.958"/>
	<path d="M950.306,58.548l-0.296-1.605c-0.19-1.025-1.086-1.77-2.131-1.77c-0.13,0-0.262,0.012-0.392,0.035l-6.054,1.111l2.74-1.832
		c0.719-0.48,1.082-1.338,0.925-2.191c-0.042-0.232-0.125-0.457-0.241-0.666l-0.832-1.469c-0.284-0.506-0.769-0.881-1.328-1.029
		c-0.273-0.074-0.561-0.09-0.841-0.053c0.308-1.686,0.464-3.406,0.464-5.158c0-0.777-0.468-1.447-1.136-1.742
		c0.874-2.076,0.933-4.451,0.069-6.626c-0.069-0.177-0.175-0.335-0.307-0.471c-0.135-0.132-0.291-0.235-0.466-0.306
		c-1.035-0.412-2.122-0.621-3.229-0.621c-0.144,0-0.285,0.003-0.424,0.01c-0.159-3.188-2.796-5.731-6.019-5.731
		c-0.423,0-0.838,0.045-1.236,0.129c0.277-1.66,0.114-3.396-0.531-5.027c-0.069-0.179-0.175-0.339-0.315-0.484
		c-0.137-0.135-0.296-0.241-0.476-0.312c-1.113-0.443-2.283-0.667-3.477-0.667c-1.8,0-3.521,0.504-5.006,1.445
		c-0.542-1.573-1.438-3.048-2.688-4.302c-0.367-0.368-0.854-0.57-1.371-0.57c-0.52,0-1.006,0.203-1.374,0.57l-5.529,5.542
		c-1.021-0.913-2.368-1.458-3.831-1.458c-0.332,0-0.665,0.029-0.995,0.087c-1.189,0.206-2.287,0.79-3.128,1.644
		c-1.077-0.52-2.311-0.697-3.497-0.491c-0.261,0.045-0.513,0.109-0.76,0.187v-4.271c0-2.94-2.363-5.337-5.287-5.388v-2.421
		c0.895-0.155,1.578-0.936,1.578-1.873V5.286c0-1.05-0.854-1.903-1.903-1.903h-9.287c-1.049,0-1.902,0.854-1.902,1.903v5.488
		c0,0.938,0.683,1.718,1.577,1.873v2.421c-2.924,0.05-5.286,2.448-5.286,5.388v33.33c-2.279,2.059-3.7,4.932-3.7,8.108
		c0,6.25,5.486,11.334,12.229,11.334l45.707-0.014c1.56,0,3.027-0.686,4.024-1.881c0.972-1.162,1.384-2.672,1.146-4.162l9.13,1.641
		c0.126,0.023,0.256,0.033,0.384,0.033c0.455,0,0.892-0.139,1.261-0.404c0.476-0.338,0.796-0.863,0.881-1.439l0.249-1.658
		c0.036-0.238,0.031-0.477-0.012-0.713c-0.156-0.848-0.804-1.521-1.646-1.715l-3.218-0.736l6.048-1.112
		c0.571-0.105,1.066-0.424,1.394-0.902C950.289,59.691,950.412,59.116,950.306,58.548L950.306,58.548z M937.254,36.439
		c0.686,0,1.362,0.108,2.012,0.324c0.58,1.768,0.362,3.676-0.547,5.25h-3.076l0.983-0.984c0.446-0.445,0.443-1.168-0.002-1.613
		c-0.448-0.445-1.172-0.445-1.615,0.002l-0.521,0.52c-0.244-0.801-0.667-1.52-1.228-2.107
		C934.394,36.928,935.786,36.439,937.254,36.439L937.254,36.439z M930.811,30.718c2.064,0,3.74,1.683,3.74,3.752
		c0,0.038,0,0.076-0.003,0.113c-1.203,0.392-2.312,1.046-3.257,1.934c-0.152-0.057-0.306-0.11-0.462-0.152
		c-0.334-1.805-1.551-3.252-3.157-3.928C928.341,31.404,929.497,30.718,930.811,30.718L930.811,30.718z M924.776,24.357
		c0.775,0,1.539,0.125,2.271,0.373c0.592,1.755,0.471,3.641-0.282,5.274c-0.618,0.563-1.12,1.254-1.463,2.028
		c-0.204,0.012-0.408,0.035-0.607,0.071c-0.896,0.154-1.729,0.543-2.429,1.106c-0.237-0.436-0.529-0.838-0.865-1.2l2.619-2.625
		c0.446-0.446,0.446-1.17-0.002-1.614c-0.445-0.446-1.17-0.445-1.613,0.001l-2.863,2.87c-0.544-0.258-1.134-0.437-1.752-0.521
		c0.267-1.363,0.93-2.647,1.951-3.672C921.088,25.099,922.876,24.357,924.776,24.357L924.776,24.357z M916.026,42.013h-0.99
		c-0.166-0.424-0.58-0.725-1.062-0.725c-0.484,0-0.896,0.301-1.063,0.725h-1.165c0.27-0.439,0.215-1.023-0.166-1.404
		c-0.447-0.445-1.169-0.443-1.615,0.002l-1.077,1.078c-0.097,0.098-0.171,0.207-0.225,0.324h-2.325
		c-0.869-1.336-1.4-2.912-1.463-4.609h18.116c-0.063,1.697-0.594,3.273-1.465,4.609h-2.418c-0.056-0.117-0.13-0.227-0.226-0.324
		l-1.076-1.08c-0.445-0.443-1.169-0.445-1.615,0C915.809,40.99,915.756,41.573,916.026,42.013L916.026,42.013z M913.369,35.12
		c0.431-1.594,1.887-2.771,3.61-2.771c1.725,0,3.181,1.178,3.611,2.771H913.369z M915.706,21.08
		c1.085,1.173,1.804,2.568,2.155,4.032c-0.582,0.634-1.066,1.334-1.449,2.079c-0.173-0.106-0.376-0.169-0.596-0.169h-1.52
		c-0.632,0-1.143,0.512-1.143,1.143s0.511,1.142,1.143,1.142h1.333c-0.073,0.316-0.132,0.635-0.175,0.956
		c-0.452,0.12-0.887,0.289-1.292,0.505c-0.76-1.314-2.021-2.292-3.516-2.686c0-0.003,0-0.005,0-0.009
		c-0.09-0.518-0.247-1.007-0.46-1.463L915.706,21.08z M895.062,31.384c-0.067-0.187-0.119-0.38-0.151-0.572
		c-0.328-1.889,0.944-3.692,2.838-4.022c0.199-0.035,0.4-0.053,0.602-0.053c0.752,0,1.471,0.241,2.079,0.695
		c0.252,0.188,0.567,0.263,0.879,0.209c0.31-0.054,0.583-0.232,0.755-0.494c0.538-0.809,1.358-1.344,2.311-1.511
		c0.199-0.034,0.403-0.053,0.603-0.053c1.693,0,3.13,1.211,3.419,2.879c0.033,0.192,0.052,0.39,0.052,0.593
		c0,0.59,0.452,1.083,1.042,1.136c1.276,0.111,2.363,0.914,2.867,2.046c-0.674,0.81-1.143,1.798-1.319,2.882h-6.513
		c-0.81,0-1.504,0.501-1.795,1.209c-1.432-0.977-3.121-1.502-4.892-1.502c-1.106,0-2.193,0.208-3.229,0.621
		c-0.175,0.07-0.331,0.173-0.466,0.307c-0.135,0.136-0.24,0.294-0.307,0.468c-0.264,0.663-0.438,1.345-0.533,2.031
		c-0.41-0.467-0.697-1.047-0.811-1.697c-0.269-1.548,0.544-3.092,1.972-3.752C895.003,32.558,895.261,31.941,895.062,31.384
		L895.062,31.384z M898.467,41.702l0.311,0.311h-2.743c-0.616-1.428-0.708-3.053-0.208-4.58c0.649-0.213,1.325-0.322,2.012-0.322
		c1.721,0,3.34,0.672,4.56,1.893c0.161,0.164,0.312,0.334,0.453,0.51c0.194,0.875,0.492,1.713,0.876,2.5h-1.724l-1.92-1.924
		c-0.445-0.447-1.168-0.449-1.615-0.002C898.021,40.531,898.021,41.255,898.467,41.702L898.467,41.702z M893.603,42.013h-4.071
		c0.182-1.105,0.846-2.049,1.771-2.604c0.547,0.73,1.259,1.322,2.082,1.725C893.444,41.431,893.514,41.724,893.603,42.013
		L893.603,42.013z M882.078,5.667h8.525v4.727h-8.525V5.667z M889.026,12.677v2.39h-5.368v-2.39H889.026z M878.37,25.088h7.415
		c0.631,0,1.142-0.512,1.142-1.142c0-0.631-0.511-1.143-1.142-1.143h-7.415v-2.347c0-1.713,1.389-3.106,3.097-3.106h9.748
		c1.709,0,3.098,1.394,3.098,3.106v2.347h-2.132c-0.631,0-1.143,0.512-1.143,1.143c0,0.63,0.512,1.142,1.143,1.142h2.132v1.014
		c-1.309,1.283-1.988,3.164-1.652,5.099c0,0.004,0.002,0.008,0.002,0.012c-1.831,1.257-2.807,3.491-2.419,5.734
		c0.021,0.131,0.051,0.259,0.081,0.386c-0.57,0.314-1.083,0.723-1.522,1.197H878.37V25.088z M878.37,40.814h9.106
		c-0.122,0.385-0.207,0.785-0.247,1.199h-0.193c-1.051,0-1.906,0.855-1.906,1.908c0,1.813,0.168,3.594,0.495,5.336
		c-0.328-0.027-0.664-0.041-1.007-0.041c-1.382,0-2.697,0.219-3.705,0.617c-1.541,0.609-1.967,1.473-2.061,2.07
		c-0.163,0.08-0.324,0.168-0.482,0.254V40.814z M892.829,54.843c0.412,0.328,0.664,0.609,0.811,0.811c-0.016,0-0.029,0-0.044,0
		c-0.646,0-1.807-0.262-3.129-0.992c-0.491-0.271-0.943-0.58-1.31-0.889c-0.426-0.361-1.051-0.361-1.476,0
		c-0.365,0.311-0.817,0.617-1.311,0.889c-1.319,0.73-2.482,0.992-3.128,0.992c-0.015,0-0.029,0-0.042,0
		c0.146-0.201,0.396-0.482,0.809-0.811c0.358-0.289,0.511-0.766,0.383-1.207c-0.126-0.443-0.506-0.766-0.963-0.818
		c-1.116-0.131-1.819-0.416-2.15-0.621c0.413-0.258,1.458-0.697,3.34-0.697c1.557,0,2.695,0.328,3.242,0.635
		c0.347,0.195,0.771,0.195,1.118,0c0.546-0.307,1.685-0.635,3.242-0.635c1.881,0,2.926,0.439,3.338,0.697
		c-0.329,0.207-1.034,0.49-2.148,0.621c-0.457,0.053-0.838,0.375-0.965,0.818S892.469,54.556,892.829,54.843L892.829,54.843z
		 M890.545,68.742l0.041,0.211c0.134,0.734,0.421,1.406,0.822,1.992h-6.794c-5.482,0-9.943-4.059-9.943-9.051
		c0-3.411,2.084-6.384,5.152-7.927c0.353,0.262,0.792,0.49,1.314,0.672c-0.209,0.354-0.353,0.734-0.386,1.129
		c-0.045,0.527,0.116,1.027,0.454,1.41c0.446,0.504,1.132,0.758,2.037,0.758c1.207,0,2.79-0.477,4.234-1.277
		c0.333-0.184,0.648-0.377,0.942-0.58c0.295,0.203,0.608,0.396,0.941,0.58c1.444,0.801,3.028,1.277,4.234,1.277
		c0.905,0,1.592-0.254,2.038-0.758c0.338-0.383,0.499-0.883,0.454-1.41c-0.034-0.395-0.179-0.775-0.385-1.129
		c0.521-0.182,0.961-0.41,1.313-0.672c2.435,1.223,4.248,3.348,4.894,5.875l-8.076,3.069
		C891.468,63.811,890.087,66.262,890.545,68.742L890.545,68.742z M932.593,69.871c-0.562,0.674-1.391,1.061-2.273,1.061h-1.199
		l-0.748-4.043c-0.114-0.619-0.71-1.029-1.331-0.914c-0.62,0.113-1.03,0.711-0.914,1.33l0.672,3.629l-3.93,0.002l-0.506-2.736
		c-0.114-0.619-0.711-1.029-1.331-0.914c-0.621,0.115-1.031,0.711-0.914,1.33l0.428,2.32l-9.139,0.004l-0.688-3.715
		c-0.114-0.619-0.71-1.029-1.331-0.914c-0.62,0.115-1.028,0.711-0.914,1.33l0.612,3.299l-13.347,0.006l0,0
		c-1.428,0-2.651-1.014-2.91-2.408l-0.039-0.213c-0.258-1.393,0.522-2.771,1.854-3.279l4.487-1.705l0.335,1.807
		c0.101,0.549,0.58,0.934,1.12,0.934c0.07,0,0.14-0.006,0.211-0.02c0.619-0.115,1.028-0.711,0.914-1.33l-0.41-2.213l6.661-2.532
		c0.592-0.223,0.888-0.883,0.663-1.473c-0.224-0.59-0.885-0.887-1.472-0.662l-3.101,1.178c-0.869-3.08-3.105-5.65-6.067-7.125
		c-0.092-0.598-0.521-1.463-2.061-2.07c-1.008-0.398-2.323-0.617-3.704-0.617c-0.95,0-1.859,0.105-2.66,0.297v-0.691
		c0-0.631-0.511-1.143-1.142-1.143c-0.267,0-0.512,0.092-0.707,0.246c-0.179-1.191-0.28-2.4-0.296-3.629h37.195
		c0.63,0,1.141-0.51,1.141-1.141s-0.511-1.143-1.141-1.143h-0.468c0.728-1.498,1.138-3.176,1.138-4.952
		c0-1.007-0.771-1.837-1.752-1.931c0.426-0.403,0.961-0.675,1.555-0.778c0.175-0.032,0.352-0.046,0.526-0.046
		c1.475,0,2.728,1.054,2.978,2.507c0.032,0.168,0.045,0.341,0.045,0.517c0.003,0.592,0.453,1.084,1.042,1.137
		c1.367,0.119,2.482,1.145,2.716,2.494c0.063,0.359,0.056,0.713-0.007,1.053h-1.226c-0.632,0-1.143,0.512-1.143,1.143
		s0.511,1.141,1.143,1.141h8.875c-0.029,2.096-0.298,4.143-0.8,6.127l-6.188,3.654c-0.381-1.318-1.26-2.436-2.472-3.113
		c-1.359-0.762-2.976-0.881-4.434-0.328l-12.744,4.842c-0.589,0.227-0.888,0.885-0.663,1.475c0.224,0.59,0.885,0.885,1.474,0.662
		l1.679-0.639l0.521,2.816c0.102,0.549,0.583,0.934,1.121,0.934c0.069,0,0.141-0.006,0.21-0.02c0.621-0.115,1.028-0.709,0.914-1.33
		l-0.596-3.225l8.897-3.379c0.822-0.313,1.736-0.246,2.505,0.184c0.766,0.43,1.297,1.17,1.458,2.031l2.311,12.472
		C933.386,68.319,933.155,69.199,932.593,69.871L932.593,69.871z M936.667,60.933c-0.531,0.098-0.924,0.556-0.935,1.097
		c-0.012,0.543,0.358,1.018,0.885,1.139l8.503,1.951l-0.211,1.424l-9.858-1.771l-1.539-8.319l8.584-5.066l0.717,1.266l-7.241,4.842
		c-0.451,0.301-0.628,0.877-0.424,1.379c0.201,0.502,0.73,0.791,1.264,0.693l11.375-2.09l0.253,1.367L936.667,60.933z
		 M936.667,60.933"/>
</g>
<g>
	<path fill-rule="evenodd" clip-rule="evenodd" stroke="#FFFFFF" stroke-width="0.75" stroke-miterlimit="10" d="M792.15,59.288
		c-1.496-2.487-3.045-4.943-4.556-7.425c-1.387-2.271-2.747-4.563-4.157-6.905c3.129-0.718,3.483-1.568,1.9-4.109
		c-0.346-0.56-0.722-1.104-1.076-1.659c-2.197-3.431-4.39-6.862-6.699-10.469c0.591-0.095,0.896-0.17,1.208-0.187
		c3.157-0.175,3.671-1.127,1.994-3.79c-1.195-1.899-2.429-3.772-3.649-5.654c-3.453-5.31-6.875-10.642-10.384-15.913
		c-1.187-1.776-2.256-1.732-3.558-0.076c-0.529,0.674-1.011,1.387-1.474,2.107c-2.936,4.544-5.855,9.097-8.79,13.641
		c-0.264,0.408-0.602,0.764-0.995,1.256c-2.034-3.108-3.92-6.049-5.869-8.95c-1.386-2.072-2.488-2.07-3.857,0.007
		c-2.696,4.073-5.352,8.169-8.019,12.26c-1.441,2.21-2.925,4.396-4.292,6.653c-0.984,1.634-0.332,2.789,1.554,3.008
		c0.367,0.041,0.736,0.07,1.107,0.108c0,0.255,0.049,0.414-0.009,0.503c-1.965,3.13-3.93,6.255-5.916,9.371
		c-1.738,2.724-1.694,2.935,1.125,4.432c-0.408,0.681-0.8,1.364-1.217,2.033c-1.988,3.192-4.017,6.357-5.941,9.585
		c-0.439,0.731-0.977,2.094-0.667,2.429c0.601,0.652,1.751,1.01,2.706,1.086c1.968,0.155,3.955,0.048,5.938,0.048
		c3.22,0,6.445,0,9.802,0c0,2.77,0,5.343,0,8.111h-10.202v1.99c-0.052,0.053-0.104,0.104-0.155,0.15
		c0.051,0.045,0.104,0.068,0.155,0.097v0.276h56.56v-2.514h-13.138c0-2.861,0-5.433,0-8.023c0.645-0.035,1.1-0.083,1.558-0.086
		c5.677-0.003,11.357,0.014,17.036-0.01C792.954,62.656,793.555,61.623,792.15,59.288z M777.51,35.202
		c1.199,1.856,2.402,3.714,3.776,5.838c-0.928,0.077-1.492,0.159-2.054,0.16c-5.671,0.01-11.341-0.034-17.008,0.036
		c-1.29,0.018-2.048-0.388-2.695-1.493c-1.252-2.137-2.653-4.185-4.141-6.498c3.761-0.408,3.974-0.863,2.357-4.718
		c1.66,0,3.199-0.002,4.741,0c1.054,0.004,2.109,0,3.164,0.022c2.56,0.051,5.582-0.698,7.552,0.41
		C775.181,30.073,776.112,33.045,777.51,35.202z M754.649,22.59c3.34-5.216,6.735-10.397,10.28-15.848
		c3.945,6.074,7.763,11.942,11.843,18.223c-7.262,0-13.987,0.026-20.715-0.021C754.548,24.933,753.885,23.782,754.649,22.59z
		 M744.107,14.531c3.278,5.046,6.355,9.787,9.588,14.767c-6.393,0-12.589,0-19.101,0C737.719,24.447,740.797,19.673,744.107,14.531z
		 M724.639,59.143c2.002-3.21,4.053-6.106,5.676-9.225c1.209-2.323,2.736-3.291,5.295-2.914c1.166,0.171,2.646-0.624,3.775-0.89
		c0.787-0.186,1.705-0.068,1.805-0.696c0.205-1.271-0.905-1.721-2.104-1.719c-2.748,0.005-5.492,0-8.734,0
		c1.598-2.514,3.221-4.531,4.249-6.819c1.561-3.475,4.066-3.961,7.568-3.859c3.217,0.094,7.217,0.094,7.715,0.088
		c0.57-0.007,1.365,0.272,1.649,0.69c2.094,3.108,4.08,6.286,6.319,9.782c-1.05,0.059-1.873-0.093-2.503,0.189
		c-0.668,0.299-1.452,0.93-1.617,1.565c-0.11,0.405,0.751,1.146,1.29,1.613c0.361,0.315,1.124,0.28,1.349,0.632
		c2.401,3.75,4.734,7.546,7.229,11.562C750.514,59.143,737.76,59.143,724.639,59.143z M758.793,70.789h-8.982
		c-0.002-2.358-0.041-4.713,0.052-7.059c0.014-0.359,0.672-0.984,1.045-0.998c2.553-0.089,5.109-0.046,7.886-0.046
		C758.793,65.514,758.793,68.077,758.793,70.789z M742.029,63.037c0.11-0.086,0.203-0.221,0.308-0.233
		c4.022-0.51,4.024-0.51,4.047,3.528c0.01,1.419,0.005,2.848,0.005,4.457h-4.359C742.029,68.172,742.029,65.604,742.029,63.037z
		 M762.54,70.789c0-2.635,0-5.218,0-7.952c1.705,0,3.377,0,5.202,0c0,2.6,0,5.183,0,7.952H762.54z M785.613,59.251
		c-5.353,0.01-10.703-0.032-16.056,0.031c-1.26,0.014-2.029-0.318-2.694-1.455c-2.064-3.509-4.268-6.938-6.239-10.112
		c1.015-0.978,1.828-1.768,2.646-2.553c-0.032-0.15-0.058-0.304-0.088-0.459c4.889,0,9.776-0.022,14.663,0.035
		c0.574,0.005,1.405,0.287,1.677,0.719c2.818,4.439,5.548,8.935,8.472,13.688C786.987,59.195,786.301,59.251,785.613,59.251z"/>
	<path fill-rule="evenodd" clip-rule="evenodd" stroke="#FFFFFF" stroke-width="0.75" stroke-miterlimit="10" d="M730.344,21.064
		c-0.015-4.238-3.654-7.813-7.907-7.758c-4.157,0.05-7.625,3.625-7.593,7.822c0.034,4.224,3.513,7.759,7.657,7.778
		C726.717,28.925,730.361,25.286,730.344,21.064z M718.302,21.03c0.047-2.208,2.017-4.149,4.231-4.165
		c2.331-0.018,4.319,1.98,4.271,4.294c-0.048,2.256-1.965,4.155-4.209,4.172C720.278,25.347,718.255,23.317,718.302,21.03z"/>
	<path fill-rule="evenodd" clip-rule="evenodd" stroke="#FFFFFF" stroke-width="0.75" stroke-miterlimit="10" d="M720.897,8.115
		c0.423,0.687,1.103,1.214,1.676,1.81c0.56-0.541,1.438-0.999,1.602-1.64c0.257-1.045,0.227-2.254-0.04-3.305
		c-0.145-0.563-1.043-1.293-1.594-1.289c-0.55,0.004-1.216,0.751-1.602,1.326c-0.253,0.372-0.101,1.021-0.126,1.545
		c0.013,0,0.025,0,0.038,0C720.851,7.09,720.66,7.734,720.897,8.115z"/>
	<path fill-rule="evenodd" clip-rule="evenodd" stroke="#FFFFFF" stroke-width="0.75" stroke-miterlimit="10" d="M722.555,38.468
		c1.229,0.012,1.75-0.765,1.735-1.924c-0.009-0.984,0.098-2.016-0.17-2.931c-0.162-0.546-0.984-1.294-1.454-1.258
		c-0.611,0.05-1.312,0.69-1.696,1.262c-0.289,0.425-0.127,1.149-0.136,1.222c0,0.915,0.013,1.309,0,1.703
		C720.8,37.732,721.352,38.457,722.555,38.468z"/>
	<path fill-rule="evenodd" clip-rule="evenodd" stroke="#FFFFFF" stroke-width="0.75" stroke-miterlimit="10" d="M712.664,13.373
		c1.052,0.685,2.358-0.116,2.42-1.328c0.059-1.223-2.576-3.861-3.779-3.784c-1.356,0.085-2.126,1.632-1.238,2.761
		C710.778,11.928,711.694,12.739,712.664,13.373z"/>
	<path fill-rule="evenodd" clip-rule="evenodd" stroke="#FFFFFF" stroke-width="0.75" stroke-miterlimit="10" d="M712.832,28.734
		c-1.075,0.688-2.035,1.639-2.841,2.638c-0.298,0.368-0.196,1.313,0.075,1.8c0.219,0.399,1.195,0.858,1.43,0.699
		c1.384-0.945,2.644-2.064,3.949-3.127C715.136,29.087,713.85,28.089,712.832,28.734z"/>
	<path fill-rule="evenodd" clip-rule="evenodd" stroke="#FFFFFF" stroke-width="0.75" stroke-miterlimit="10" d="M731.511,13.591
		c1.217,0.141,3.939-2.391,3.911-3.636c-0.025-1.391-1.526-2.216-2.677-1.35c-0.928,0.698-1.765,1.58-2.451,2.521
		C729.565,12.133,730.286,13.451,731.511,13.591z"/>
	<path fill-rule="evenodd" clip-rule="evenodd" stroke="#FFFFFF" stroke-width="0.75" stroke-miterlimit="10" d="M709.413,19.492
		c-0.66-0.289-1.645-0.284-2.31-0.002c-0.771,0.328-1.353,1.103-2.013,1.683c0.652,0.515,1.27,1.085,1.973,1.512
		c0.289,0.173,0.771,0.028,1.165,0.028c0.393,0,0.871,0.143,1.163-0.028c0.71-0.417,1.337-0.976,1.99-1.479
		C710.736,20.615,710.175,19.825,709.413,19.492z"/>
	
		<rect x="743.385" y="44.115" fill-rule="evenodd" clip-rule="evenodd" stroke="#FFFFFF" stroke-width="0.75" stroke-miterlimit="10" width="9" height="3"/>
</g>
<g>
	<rect x="858.035" y="40.88" width="2.445" height="2.446"/>
	<rect x="858.035" y="50.665" width="2.445" height="2.446"/>
	<rect x="858.035" y="60.45" width="2.445" height="2.445"/>
	<path d="M867.82,31.095h-5.483c-0.623-2.856-1.965-5.5-3.926-7.703c-0.889-0.999-1.926-1.806-3.04-2.384
		c2.232-1.547,3.697-4.122,3.697-7.035v-1.224h-6.117c-3.114,0-5.839,1.679-7.337,4.175v-2.951c0-2.698,2.193-4.894,4.892-4.894
		V6.633c-4.048,0-7.34,3.292-7.34,7.339v6.786c-1.447-0.524-2.966-0.666-4.435-0.48c0.006-0.001,0.014-0.003,0.022-0.004
		c-2.011-5.53-7.297-9.487-13.522-9.487c-7.951,0-14.397,6.447-14.397,14.399c0,2.109,0.464,4.106,1.278,5.91h-2.465h-1.76
		c-1.35,0-2.445,1.098-2.445,2.447v0.098c-0.403-0.058-0.809-0.098-1.225-0.098h-6.115v1.223c0,2.913,1.465,5.488,3.695,7.035
		c-1.114,0.58-2.152,1.386-3.041,2.387c-2.786,3.133-4.323,7.172-4.323,11.372c0,4.698,1.865,9.081,5.251,12.34
		c3.222,3.101,7.413,4.784,11.865,4.784c0.228,0,0.457-0.005,0.687-0.014c4.354-0.168,8.311-2.006,11.255-4.878h35.768
		c3.373,0,6.116-2.744,6.116-6.116V38.434h2.445c1.35,0,2.447-1.097,2.447-2.446v-2.445C870.267,32.193,869.17,31.095,867.82,31.095
		z M852.951,15.195h3.547c-0.568,2.789-3.039,4.892-5.992,4.892h-3.546C847.527,17.3,849.999,15.195,852.951,15.195z
		 M842.712,23.178c0.146,0.063,0.302,0.111,0.454,0.165v2.611c-1.214-0.452-2.366-1.405-2.805-1.84l-1.729,1.731
		c0.286,0.288,2.887,2.806,5.757,2.806c2.871,0,5.473-2.518,5.758-2.806l-1.728-1.731c-0.439,0.433-1.591,1.387-2.806,1.84v-3.419
		h4.892c0.416,0,0.818-0.04,1.216-0.097c1.715,0.123,3.528,1.081,4.862,2.582c1.562,1.75,2.657,3.831,3.236,6.076h-28.413
		c0.585-2.272,1.7-4.375,3.289-6.14C836.689,22.742,839.985,22.011,842.712,23.178z M825.231,13.282c5.06,0,9.369,3.161,11.094,7.61
		c0.391-0.16,0.79-0.288,1.198-0.39c-1.749,0.456-3.374,1.405-4.646,2.818c-2.497,3.154-3.982,7.775-3.982,7.775h-0.803h-0.973
		h-2.109H814.91c-1-1.742-1.58-3.757-1.58-5.91C813.33,18.611,818.659,13.282,825.231,13.282z M807.887,33.542h2.556
		c-0.067,0.398-0.11,0.805-0.11,1.223v1.359c-0.702-0.718-1.53-1.306-2.445-1.743V33.542z M800.672,35.988h3.546
		c2.954,0,5.424,2.105,5.993,4.893h-3.547C803.712,40.88,801.239,38.777,800.672,35.988z M812.141,70.224
		c-4.059,0.146-7.858-1.296-10.761-4.09c-2.901-2.793-4.502-6.548-4.502-10.575c0-3.6,1.316-7.061,3.705-9.747
		c1.337-1.501,3.147-2.46,4.864-2.581c0.398,0.057,0.801,0.096,1.216,0.096h3.669v3.421c-1.213-0.453-2.367-1.406-2.806-1.841
		l-1.728,1.731c0.285,0.287,2.887,2.805,5.757,2.805c2.871,0,5.472-2.518,5.758-2.805l-1.728-1.731
		c-0.439,0.434-1.594,1.387-2.807,1.841v-2.304c0.586-0.095,1.152-0.248,1.676-0.473c2.728-1.169,6.025-0.434,8.018,1.777
		c2.586,2.876,3.918,6.596,3.747,10.477C825.885,63.783,819.701,69.932,812.141,70.224z M862.928,61.673
		c0,2.024-1.646,3.67-3.67,3.67h-33.682c1.508-2.145,2.538-4.644,2.927-7.339h34.425V61.673z M862.928,55.559H828.66
		c0-2.572-0.547-5.068-1.629-7.339h35.897V55.559z M867.82,35.988h-4.892v9.786h-37.335c-0.403-0.574-0.826-1.134-1.301-1.66
		c-2.725-3.028-7.066-3.986-10.797-2.39c-0.223,0.095-0.471,0.156-0.716,0.218v-3.508h47.703v-2.446H812.78v-1.223
		c0-0.424,0.07-0.83,0.174-1.223h54.866V35.988z"/>
</g>
</svg>
