<?xml version="1.0" encoding="utf-8"?>
<!-- Generator: Adobe Illustrator 16.0.0, SVG Export Plug-In . SVG Version: 6.00 Build 0)  -->
<!DOCTYPE svg PUBLIC "-//W3C//DTD SVG 1.1//EN" "http://www.w3.org/Graphics/SVG/1.1/DTD/svg11.dtd">
<svg version="1.1" id="Layer_1" xmlns="http://www.w3.org/2000/svg" xmlns:xlink="http://www.w3.org/1999/xlink" x="0px" y="0px"
	 width="445.18px" height="75.877px" viewBox="0 0 445.18 75.877" enable-background="new 0 0 445.18 75.877" xml:space="preserve">
<g id="Layer_1_1_">
	<g>
		<path fill="#008A2E" d="M217.335,34.99l-2.646-2.113c-8.825-7.043-17.952-14.326-26.899-21.527
			c-0.371-0.299-0.62-0.432-0.809-0.432c-0.18,0-0.424,0.123-0.746,0.379c-7.158,5.645-14.463,11.35-21.525,16.867l-5.779,4.514
			c-2.076,1.625-4.155,3.246-6.274,4.9l-2.308,1.801l1.902,2.363l4.505-3.231v3.209c0.001,1.491-0.001,2.985-0.002,4.479
			c-0.005,4.027-0.01,8.191,0.038,12.283c0.016,1.338-0.281,2.418-1.783,3.354c-3.756,2.345-5.934,7.104-5.123,11.039h72.877
			c0.49-5.685-1.116-9.769-5.025-12.819c-0.629-0.49-1.109-1.406-1.117-2.127c-0.053-5.052-0.044-10.189-0.035-15.152l0.004-2.289
			c0-0.262,0.11-0.452,0.207-0.623c0.034-0.057,0.073-0.125,0.113-0.209l0.355-0.735l2.899,2.229l1.912-2.455
			c-0.421-0.325-0.833-0.646-1.239-0.96C219.623,36.789,218.477,35.9,217.335,34.99z M205.051,29.186l5.662,4.371h-5.662V29.186z
			 M194.109,20.277l2.538,2.074c1.628,1.328,3.166,2.582,4.682,3.861c0.465,0.393,0.525,1.107,0.53,1.396
			c0.021,1.27,0.019,2.539,0.016,3.883l-0.003,2.107h-7.763V20.277z M183.087,18.58c0.018-0.736,0.672-1.299,1.249-1.797
			c0.134-0.113,0.264-0.227,0.378-0.334c0.385-0.367,0.811-0.684,1.221-0.992c0.176-0.133,0.355-0.264,0.533-0.404l0.354-0.277
			l0.389,0.227c2.006,1.164,4.116,2.695,3.772,6.162c-0.225,2.244-0.168,4.574-0.115,6.828c0.023,0.996,0.048,2.025,0.049,3.037
			v2.545h-7.895V32.91c0-1.131-0.003-2.252-0.006-3.371C183.008,25.773,182.999,22.219,183.087,18.58z M172.127,27.48
			c0.025-0.561,0.282-1.318,0.797-1.754c1.376-1.16,2.782-2.279,4.271-3.463c0.515-0.408,1.038-0.826,1.574-1.256l1.079-0.863
			v13.537h-0.664c-0.483,0-0.961,0.004-1.436,0.006c-0.471,0.004-0.936,0.008-1.399,0.008c-1.089,0-1.922-0.02-2.7-0.063
			c-0.708-0.037-1.46-0.957-1.504-1.615C172.052,30.668,172.047,29.229,172.127,27.48z M168.874,28.746v4.842h-5.994L168.874,28.746
			z M159.839,40.901l0.001-4.087h53.519v20.93l-0.743-0.091c-0.546-0.063-1.109-0.098-1.675-0.098c-2.969,0-5.749,0.879-8.693,1.813
			c-2.312,0.73-4.702,1.486-7.223,1.797l-0.744,0.092v-0.75c0-0.939,0.004-1.875,0.009-2.811c0.011-2.064,0.021-4.197-0.022-6.287
			c-0.061-2.959-1.397-5.188-3.975-6.631c-1.135-0.635-2.353-0.957-3.619-0.957c-4.139,0-7.486,3.277-7.621,7.463
			c-0.067,2.115-0.053,4.279-0.039,6.373c0.007,0.969,0.014,1.938,0.012,2.902v1.252v2.021l-4.299-0.93
			c-2.655-0.57-5.177-1.113-7.695-1.67c-1.722-0.381-3.719-0.832-5.65-1.361c-0.533-0.146-1.49-0.785-1.496-1.541
			C159.835,52.547,159.837,46.892,159.839,40.901z M182.146,58.979c-0.016-2.789-0.032-5.426,0.051-8.074
			c0.063-2.061,1.977-3.805,4.264-3.887c0.059-0.002,0.117-0.004,0.176-0.004c2.369,0,4.324,1.617,4.452,3.684
			c0.177,2.854,0.146,5.756,0.116,8.563c-0.006,0.531-0.011,1.064-0.016,1.598c-0.004,0.648-0.762,1.375-1.344,1.465
			c-1.688,0.262-3.38,0.469-5.168,0.689c-0.58,0.068-1.168,0.145-1.77,0.219l-0.747,0.094v-0.752
			C182.16,61.342,182.153,60.147,182.146,58.979z M219.188,67.063c0.131,0.375,0.209,0.748,0.301,1.178
			c0.043,0.201,0.09,0.42,0.146,0.656l0.193,0.816h-66.724l0.271-0.861c1.168-3.717,4.036-5.85,7.868-5.85
			c1.017,0,2.08,0.156,3.162,0.463l0.134,0.039c3.495,0.992,7.108,2.021,10.71,2.479c1.715,0.22,3.504,0.33,5.315,0.33
			c6.566,0,12.884-1.424,18.199-2.815c0.989-0.261,1.977-0.53,2.964-0.804c2.286-0.631,4.651-1.28,7.021-1.762
			c0.59-0.121,1.191-0.183,1.787-0.183C214.407,60.752,217.884,63.289,219.188,67.063z"/>
		<path fill="#008A2E" d="M167.867,20.119c0.021-0.367,0.04-0.713,0.043-1.049c0.009-1.182,0.016-2.299-0.205-2.521
			c-0.03-0.029-0.146-0.102-0.56-0.102c-0.445,0-1.087,0.08-1.945,0.193c-0.088,0.021-0.288,0.166-0.364,0.264
			c-0.066,0.895-0.056,1.801-0.045,2.758c0.002,0.15,0.003,0.303,0.005,0.457H167.867z"/>
		<path fill="#008A2E" d="M207.124,0v3.359c1.57,0.176,2.578,0.219,2.804-0.014c0.282-0.291,0.249-1.5,0.206-3.031
			C210.131,0.217,210.118,0.111,210.1,0H207.124z"/>
		<rect x="155.634" y="4.871" fill="#008A2E" width="2.912" height="3.244"/>
		<rect x="219.928" y="6.094" fill="#008A2E" width="2.802" height="3.246"/>
		<path fill="#008A2E" d="M213.546,25.436h2.887v-3.398c-1.406-0.223-2.467-0.307-2.703-0.063c-0.311,0.32-0.266,1.684-0.227,2.889
			C213.509,25.043,213.526,25.229,213.546,25.436z"/>
		<rect x="150.146" y="24.221" fill="#008A2E" width="2.85" height="3.188"/>
		<path fill="#008A2E" d="M197.491,10.207c-0.002,0.141-0.004,0.277-0.005,0.416c-0.013,0.887-0.023,1.725,0.045,2.541
			c0.042,0.098,0.213,0.273,0.308,0.316c0.729,0.104,1.559,0.105,2.448,0.002c0.048-0.018,0.182-0.121,0.243-0.195
			c0.057-0.9,0.047-1.828,0.039-2.725c-0.002-0.119-0.003-0.238-0.004-0.355H197.491L197.491,10.207z"/>
		<rect x="178.733" y="2.971" fill="#008A2E" width="2.778" height="3.26"/>
		<path fill="#008A2E" d="M163.832,41.334v11.58h11.958v-11.58H163.832z M172.697,49.722h-5.79v-5.291h5.79V49.722z"/>
		<path fill="#008A2E" d="M197.616,41.371V52.94h11.928V41.371H197.616z M206.438,49.756h-5.73v-5.36h5.73V49.756z"/>
	</g>
	<g>
		<path fill="#008A2E" d="M31.468,44.228l-0.332,0.135l0.938,2.35l0.333-0.135c3.401-1.359,7.635-1.361,11.037,0l0.333,0.135
			l0.938-2.35l-0.333-0.135C40.39,42.63,35.46,42.632,31.468,44.228L31.468,44.228z"/>
		<rect x="36.661" y="25.31" fill="#008A2E" width="2.527" height="13.906"/>
		<path fill="#008A2E" d="M73.321,0.027v23.199c0,0.406-0.065,0.811-0.194,1.197L67.114,42.46l-9.379,14.682
			c-0.291,0.459-0.761,0.773-1.295,0.869c-1.129,0.176-2.188-0.596-2.363-1.727c-0.067-0.434,0.004-0.877,0.206-1.268
			c2.198-3.992,6.242-11.404,6.242-11.404c0.047-0.086,0.083-0.18,0.11-0.274l1.022-3.748l4.02-12.633l-2.41-0.768l-4.028,12.662
			l0.01,0.004c-0.006,0.02-0.02,0.029-0.023,0.047c-0.322,1.186-1.544,1.883-2.727,1.561c-0.082-0.021-0.163-0.049-0.242-0.08
			c-0.993-0.396-1.563-1.445-1.354-2.496l1.959-9.799c0.017-0.082,0.025-0.166,0.025-0.248v-3.705
			c-0.015-5.391,2.128-10.563,5.949-14.365c0.237-0.236,0.371-0.559,0.371-0.895V0.027h-2.529v8.334
			c-0.875,0.926-1.672,1.92-2.383,2.979C51.313,0.087,36.532-3.375,25.282,3.607c-3.137,1.947-5.783,4.592-7.73,7.73
			c-0.709-1.057-1.506-2.053-2.382-2.977V0.027h-2.528v8.848c0,0.336,0.133,0.658,0.371,0.895c3.821,3.803,5.964,8.975,5.949,14.367
			v3.703c0.001,0.082,0.009,0.166,0.025,0.246l1.959,9.799c0.21,1.051-0.359,2.1-1.353,2.498c-1.14,0.457-2.433-0.098-2.888-1.237
			c-0.031-0.078-0.059-0.158-0.08-0.237c-0.006-0.021-0.019-0.031-0.023-0.05l0.008-0.004l-4.028-12.663l-2.409,0.768l4.02,12.633
			l1.021,3.748c0.026,0.096,0.063,0.189,0.111,0.275c0,0,4.043,7.41,6.242,11.402c0.486,0.885,0.246,1.974-0.638,2.635
			c-0.435,0.324-0.984,0.455-1.519,0.359c-0.535-0.097-1.006-0.41-1.296-0.869L8.735,42.46L2.724,24.425
			c-0.129-0.387-0.195-0.793-0.195-1.199V0.027H0v23.199c-0.001,0.68,0.109,1.355,0.325,1.998l6.062,18.184
			c0.032,0.1,0.077,0.192,0.134,0.28l9.463,14.814c0.672,1.051,1.75,1.771,2.977,1.994c0.26,0.049,0.522,0.068,0.787,0.068
			c0.998-0.004,1.969-0.336,2.763-0.939c0.05-0.037,0.089-0.084,0.136-0.125c0.092,0.104,0.176,0.219,0.268,0.314
			c0.729,0.803,1.521,1.539,2.371,2.211v4.795c-0.002,2.516-0.407,5.01-1.201,7.391c-0.219,0.664,0.139,1.379,0.802,1.602
			c0.128,0.043,0.263,0.063,0.399,0.063h25.281c0.699,0,1.266-0.564,1.266-1.266c0-0.135-0.022-0.27-0.064-0.398
			c-0.794-2.381-1.199-4.875-1.201-7.391v-4.795c0.846-0.668,1.635-1.402,2.361-2.197c0.098-0.105,0.185-0.225,0.279-0.332
			c0.068,0.061,0.125,0.123,0.197,0.176c1.979,1.486,4.787,1.084,6.271-0.896c0.066-0.09,0.131-0.182,0.191-0.273l9.464-14.814
			c0.056-0.088,0.101-0.183,0.133-0.281l6.063-18.185c0.214-0.643,0.324-1.316,0.322-1.996V0.027H73.321z M56.532,14.441
			c-0.328-0.402-0.669-0.777-1.014-1.145l0.627-0.629c0.234,0.377,0.457,0.764,0.668,1.156
			C56.712,14.027,56.628,14.236,56.532,14.441L56.532,14.441z M54.671,10.566l-0.961,0.965c-0.945-0.83-1.955-1.586-3.02-2.256
			l1.396-1.396C53.026,8.697,53.89,9.597,54.671,10.566L54.671,10.566z M27.47,8.011l-1.688-1.689
			c1.237-0.854,2.562-1.576,3.95-2.152l1.233,2.463C29.765,6.996,28.595,7.457,27.47,8.011L27.47,8.011z M33.489,6.027l-1.336-2.67
			c1.473-0.406,2.982-0.654,4.508-0.74v3.025C35.596,5.697,34.536,5.826,33.489,6.027L33.489,6.027z M39.188,2.599
			c1.529,0.086,3.043,0.334,4.52,0.742l-1.347,2.688c-1.048-0.201-2.106-0.33-3.173-0.387V2.599z M46.118,4.173
			c1.393,0.57,2.72,1.289,3.96,2.139L48.38,8.011c-1.125-0.555-2.293-1.016-3.494-1.379L46.118,4.173z M23.778,7.894l1.381,1.381
			c-1.066,0.668-2.076,1.424-3.018,2.256l-0.951-0.949c0.479-0.605,0.991-1.184,1.533-1.732C23.062,8.511,23.423,8.207,23.778,7.894
			L23.778,7.894z M19.702,12.667l0.629,0.629c-0.346,0.369-0.688,0.744-1.014,1.145c-0.096-0.205-0.179-0.412-0.28-0.615
			C19.249,13.433,19.466,13.046,19.702,12.667L19.702,12.667z M48.876,73.349H26.974c0.557-2.129,0.837-4.32,0.838-6.522v-3.029
			c0.62,0.356,1.26,0.685,1.914,0.976c5.221,2.319,11.18,2.319,16.4,0c0.653-0.291,1.291-0.617,1.912-0.976v3.031
			C48.038,69.026,48.319,71.22,48.876,73.349L48.876,73.349z M51.055,58.131c-1.657,1.849-3.687,3.322-5.956,4.328
			c-4.568,2.021-9.775,2.021-14.346,0c-2.273-1.006-4.307-2.485-5.966-4.34c-0.233-0.255-0.444-0.521-0.662-0.781
			c0.378-1.176,0.254-2.457-0.345-3.541c-1.824-3.315-4.927-8.995-5.92-10.815c2.574,0.502,5.068-1.178,5.57-3.752
			c0.118-0.605,0.117-1.232-0.006-1.84l-0.855-4.281c1.118,0.109,2.243,0.184,3.373,0.184c1.97,0,3.938-0.166,5.879-0.502
			l-0.434-2.492c-3.088,0.525-6.232,0.596-9.34,0.207l-0.557-2.791v-2.18c2.854-1.523,6.301-1.893,9.802-1.008l0.622-2.449
			c-3.675-0.934-7.322-0.67-10.489,0.686c-0.108-1.885-0.45-3.752-1.018-5.555c0.63-0.904,1.331-1.758,2.095-2.555
			c0.068-0.074,0.145-0.15,0.223-0.23c0.064-0.064,0.129-0.129,0.256-0.24c1.436-1.4,3.064-2.586,4.836-3.523
			c1.656-0.895,3.43-1.555,5.268-1.969c3.188-0.744,6.506-0.742,9.695,0.004c1.835,0.412,3.604,1.074,5.258,1.971
			c1.777,0.939,3.412,2.131,4.852,3.537c0.169,0.156,0.324,0.313,0.5,0.5c0.748,0.781,1.434,1.619,2.051,2.506
			c-0.568,1.803-0.91,3.67-1.018,5.557c-3.166-1.357-6.813-1.619-10.489-0.688l0.622,2.451c3.502-0.889,6.949-0.52,9.803,1.006v2.18
			l-0.582,2.91c-2.686,0.234-5.391,0.125-8.05-0.326l-0.435,2.492c1.92,0.33,3.863,0.496,5.811,0.494
			c0.722,0,1.441-0.027,2.156-0.074l-0.834,4.18c-0.516,2.572,1.152,5.074,3.725,5.586c0.607,0.123,1.232,0.125,1.84,0.006
			c-0.994,1.82-4.094,7.5-5.922,10.815c-0.596,1.082-0.718,2.361-0.336,3.533C51.509,57.599,51.296,57.867,51.055,58.131
			L51.055,58.131z"/>
	</g>
	<g>
		<path fill="#008A2E" d="M241.599,39.427c0,0.733-0.596,1.331-1.332,1.331c-0.736,0-1.33-0.598-1.33-1.331
			c0-0.736,0.594-1.333,1.33-1.333C241.003,38.094,241.599,38.688,241.599,39.427L241.599,39.427z"/>
		<path fill="#008A2E" d="M241.62,46.082c0,0.735-0.596,1.332-1.332,1.332c-0.736,0-1.332-0.597-1.332-1.332
			c0-0.733,0.596-1.332,1.332-1.332C241.024,44.75,241.62,45.349,241.62,46.082L241.62,46.082z"/>
		<path fill="#008A2E" d="M247.194,40.205c0,0.735-0.598,1.332-1.332,1.332c-0.734,0-1.332-0.597-1.332-1.332
			c0-0.733,0.598-1.332,1.332-1.332C246.596,38.873,247.194,39.472,247.194,40.205L247.194,40.205z"/>
		<path fill="#008A2E" d="M237.339,59.92c0,0.733-0.596,1.33-1.332,1.33c-0.734,0-1.33-0.597-1.33-1.33
			c0-0.735,0.596-1.334,1.33-1.334C236.743,58.586,237.339,59.185,237.339,59.92L237.339,59.92z"/>
		<path fill="#008A2E" d="M245.327,66.576c0,0.733-0.596,1.329-1.33,1.329c-0.736,0-1.332-0.596-1.332-1.329
			c0-0.734,0.596-1.33,1.332-1.33C244.731,65.246,245.327,65.842,245.327,66.576L245.327,66.576z"/>
		<path fill="#008A2E" d="M238.671,66.576c0,0.733-0.598,1.329-1.332,1.329c-0.736,0-1.332-0.596-1.332-1.329
			c0-0.734,0.596-1.33,1.332-1.33C238.073,65.246,238.671,65.842,238.671,66.576L238.671,66.576z"/>
		<path fill="#008A2E" d="M236.007,50.599c0,0.735-0.596,1.332-1.33,1.332c-0.736,0-1.332-0.597-1.332-1.332
			c0-0.734,0.596-1.332,1.332-1.332C235.411,49.267,236.007,49.862,236.007,50.599L236.007,50.599z"/>
		<path fill="#008A2E" d="M240.001,53.263c0,0.735-0.596,1.329-1.33,1.329c-0.736,0-1.332-0.594-1.332-1.329
			c0-0.736,0.596-1.332,1.332-1.332C239.405,51.931,240.001,52.524,240.001,53.263L240.001,53.263z"/>
		<path fill="#008A2E" d="M236.007,43.938c0,0.735-0.596,1.332-1.33,1.332c-0.736,0-1.332-0.597-1.332-1.332
			c0-0.733,0.596-1.33,1.332-1.33C235.411,42.608,236.007,43.205,236.007,43.938L236.007,43.938z"/>
		<path fill="#008A2E" d="M236.007,35.951c0,0.736-0.596,1.332-1.33,1.332c-0.736,0-1.332-0.596-1.332-1.332
			c0-0.734,0.596-1.332,1.332-1.332C235.411,34.619,236.007,35.217,236.007,35.951L236.007,35.951z"/>
		<path fill="#008A2E" d="M261.308,34.619c0,0.736-0.598,1.332-1.332,1.332s-1.332-0.596-1.332-1.332
			c0-0.734,0.596-1.332,1.332-1.332C260.71,33.287,261.308,33.885,261.308,34.619L261.308,34.619z"/>
		<path fill="#008A2E" d="M254.649,35.951c0,0.736-0.598,1.332-1.332,1.332s-1.332-0.596-1.332-1.332
			c0-0.734,0.598-1.332,1.332-1.332S254.649,35.217,254.649,35.951L254.649,35.951z"/>
		<path fill="#008A2E" d="M242.665,33.287c0,0.736-0.596,1.332-1.332,1.332c-0.734,0-1.332-0.596-1.332-1.332
			c0-0.734,0.598-1.33,1.332-1.33C242.069,31.957,242.665,32.553,242.665,33.287L242.665,33.287z"/>
		<path fill="#008A2E" d="M263.97,29.295c0,0.732-0.596,1.33-1.332,1.33c-0.734,0-1.332-0.598-1.332-1.33
			c0-0.736,0.598-1.332,1.332-1.332C263.374,27.963,263.97,28.559,263.97,29.295L263.97,29.295z"/>
		<path fill="#008A2E" d="M267.964,33.287c0,0.736-0.596,1.332-1.332,1.332c-0.734,0-1.33-0.596-1.33-1.332
			c0-0.734,0.596-1.33,1.33-1.33C267.368,31.957,267.964,32.553,267.964,33.287L267.964,33.287z"/>
		<path fill="#008A2E" d="M274.622,30.625c0,0.736-0.598,1.332-1.332,1.332s-1.332-0.596-1.332-1.332s0.598-1.332,1.332-1.332
			S274.622,29.889,274.622,30.625L274.622,30.625z"/>
		<path fill="#008A2E" d="M271.958,38.614c0,0.734-0.596,1.33-1.33,1.33c-0.736,0-1.332-0.596-1.332-1.33
			c0-0.735,0.596-1.331,1.332-1.331C271.362,37.283,271.958,37.879,271.958,38.614L271.958,38.614z"/>
		<path fill="#008A2E" d="M249.839,34.871c0,0.734-0.596,1.332-1.332,1.332c-0.734,0-1.33-0.598-1.33-1.332s0.596-1.332,1.33-1.332
			C249.243,33.539,249.839,34.137,249.839,34.871L249.839,34.871z"/>
		<path fill="#008A2E" d="M268.335,43.599l-6.473-6.472l-8.869,2.414l-2.016,7.412l-7.377,2.006l-2.412,8.869l6.471,6.471
			l7.391-2.01l5.348,5.351l8.871-2.414l2.412-8.869L266.321,51L268.335,43.599z M255.161,41.709l5.91-1.606l4.287,4.287
			l-1.604,5.891l-5.928,1.613l-4.273-4.272L255.161,41.709z M244.165,57.037l1.605-5.91l5.91-1.604l4.256,4.258l-1.619,5.951
			l-5.865,1.595L244.165,57.037z M267.099,63.058l-5.91,1.604l-4.254-4.257l1.615-5.934l5.886-1.603l4.272,4.272L267.099,63.058z"/>
		<path fill="#008A2E" d="M273.585,13.834c-2.527-0.904-3.844-1.479-4.176-2.469c2.488-0.6,4.344-2.848,4.344-5.516V5.672
			c0-3.127-2.545-5.672-5.674-5.672H238.38c-3.127,0-5.672,2.545-5.672,5.672V5.85c0,2.652,1.83,4.885,4.348,5.504
			c-0.326,0.998-1.641,1.574-4.18,2.48c-3.811,1.363-9.027,3.23-9.027,10.266v2.328c0,0.441,0.221,0.855,0.586,1.102
			c0.363,0.246,0.83,0.299,1.24,0.137l1.127-0.451v33.643c0.002,7.561,6.15,13.709,13.709,13.709h25.439
			c7.561,0,13.709-6.148,13.709-13.709V29.789c0.299-0.078,0.594-0.176,0.873-0.324c1.283-0.688,2.078-2.018,2.078-3.471V24.1
			C282.61,17.063,277.394,15.197,273.585,13.834L273.585,13.834z M276.995,60.856c0,6.09-4.953,11.045-11.045,11.045h-25.439
			c-6.09,0-11.045-4.955-11.045-11.045V26.148l1.533-0.611c0.582-0.236,1.238-0.012,1.563,0.525l1.803,3.004
			c0.572,0.955,1.525,1.623,2.619,1.838c0.25,0.049,0.502,0.074,0.754,0.074c0.016,0,0.031-0.004,0.047-0.004
			c0.035,0,0.07-0.006,0.107-0.008c0.213-0.01,0.426-0.035,0.635-0.078c0.07-0.014,0.141-0.033,0.211-0.051
			c0.178-0.047,0.35-0.105,0.521-0.178c0.066-0.029,0.133-0.055,0.199-0.084c0.223-0.109,0.441-0.232,0.645-0.385l1.789-1.342
			c0.504-0.377,1.219-0.326,1.662,0.117l0.709,0.711c0.807,0.807,1.92,1.232,3.061,1.141c1.141-0.082,2.186-0.65,2.871-1.564
			l0.543-0.727c0.486-0.645,1.484-0.736,2.105,0.092c0.779,1.037,2.014,1.629,3.313,1.568c1.299-0.055,2.481-0.744,3.172-1.844
			l2.573-4.121c0.263-0.418,0.707-0.658,1.205-0.59c0.492,0.049,0.892,0.354,1.063,0.816l0.908,2.424
			c0.514,1.365,1.682,2.307,3.129,2.514c1.443,0.203,2.828-0.365,3.707-1.537l0.096-0.129c0.406-0.539,1.162-0.67,1.727-0.295
			l2.76,1.84c0.16,0.107,0.326,0.199,0.502,0.281v31.312H276.995L276.995,60.856z M279.948,25.992c0,0.689-0.471,1.014-0.674,1.121
			c-0.107,0.059-0.313,0.139-0.566,0.148l-0.201-0.027c-0.096-0.014-0.178-0.033-0.254-0.057c-0.094-0.033-0.188-0.063-0.283-0.127
			l-2.76-1.84c-0.434-0.291-0.906-0.482-1.389-0.582c-1.449-0.297-3.004,0.242-3.945,1.498l-0.096,0.129
			c-0.408,0.545-0.979,0.527-1.199,0.496c-0.223-0.031-0.771-0.176-1.01-0.813l-0.908-2.424c-0.529-1.412-1.791-2.381-3.293-2.531
			c-1.494-0.139-2.93,0.553-3.73,1.83l-2.574,4.119c-0.225,0.361-0.598,0.58-1.025,0.596c-0.414,0-0.816-0.166-1.137-0.596
			c-0.75-1-1.898-1.576-3.148-1.576s-2.398,0.576-3.148,1.576l-0.545,0.725c-0.225,0.301-0.555,0.48-0.928,0.508
			c-0.373,0.023-0.725-0.104-0.988-0.369l-0.709-0.709c-1.377-1.375-3.588-1.535-5.145-0.365l-1.789,1.342
			c-0.293,0.217-0.652,0.297-1.008,0.229c-0.357-0.068-0.658-0.279-0.846-0.592l-1.803-3.006c-0.164-0.271-0.365-0.508-0.576-0.727
			c-0.057-0.055-0.111-0.107-0.17-0.158c-0.201-0.186-0.418-0.35-0.65-0.486c-0.025-0.014-0.049-0.035-0.076-0.051
			c-0.256-0.141-0.529-0.246-0.811-0.326c-0.074-0.021-0.148-0.037-0.227-0.055c-0.242-0.055-0.488-0.088-0.738-0.096
			c-0.039-0.002-0.078-0.016-0.119-0.016c-0.016,0-0.033,0.004-0.049,0.004c-0.15,0.002-0.301,0.023-0.451,0.043
			c-0.088,0.012-0.176,0.012-0.264,0.031c-0.238,0.045-0.475,0.113-0.709,0.207l-3.494,1.398v-0.361c0-5.16,3.525-6.42,7.26-7.758
			c2.611-0.934,5.51-2.006,5.939-4.82h3.314c0.734,0,1.332-0.596,1.332-1.332c0-0.734-0.598-1.332-1.332-1.332h-4.559
			c-0.016,0-0.027,0.01-0.043,0.012c-0.016,0-0.029-0.012-0.045-0.012c-1.658,0-3.008-1.348-3.008-3.008v-0.18
			c0-1.658,1.35-3.008,3.008-3.008h29.701c1.659,0,3.01,1.35,3.01,3.008V5.85c0,1.658-1.351,3.01-3.098,3.01h-16.277
			c-0.734,0-1.332,0.594-1.332,1.33c0,0.736,0.598,1.332,1.332,1.332h15.033c0.43,2.816,3.328,3.887,5.938,4.82
			c3.732,1.338,7.262,2.598,7.262,7.758V25.992L279.948,25.992z"/>
	</g>
	<g>
		<path fill="#008A2E" d="M438.433,25.244c-0.268-0.266-0.637-0.416-1.014-0.416s-0.746,0.15-1.014,0.416
			c-0.268,0.27-0.42,0.639-0.42,1.014c0,0.379,0.152,0.748,0.42,1.016c0.268,0.266,0.637,0.418,1.014,0.418s0.746-0.152,1.014-0.418
			c0.27-0.268,0.418-0.637,0.418-1.016C438.851,25.883,438.7,25.514,438.433,25.244L438.433,25.244z"/>
		<path fill="#008A2E" d="M443.685,20.707c-1.305-1.633-3.25-2.568-5.338-2.568c-3.215,0-5.955,2.189-6.664,5.324l-2.664,11.77
			h-6.74c0.029-0.092,0.063-0.184,0.088-0.277c0.201-0.754,0.18-1.518-0.023-2.221c2.222-0.08,4.002-1.91,4.002-4.15
			c0-1.354-0.65-2.561-1.66-3.318l0.414-0.414c0.785-0.785,1.219-1.828,1.219-2.936c0-1.109-0.434-2.152-1.219-2.938
			c-0.781-0.785-1.825-1.215-2.936-1.215c-1.107,0-2.152,0.43-2.938,1.215l-0.414,0.414c-0.27-0.357-0.598-0.67-0.967-0.926
			l0.363-0.361c1.619-1.621,1.619-4.254,0-5.873c-0.785-0.785-1.828-1.217-2.938-1.217c-1.109,0-2.149,0.432-2.937,1.217
			l-0.414,0.414c-0.326-0.43-0.73-0.797-1.196-1.074c0.657-0.758,1.021-1.713,1.021-2.727c0-1.107-0.433-2.15-1.217-2.936
			c-0.957-0.957-2.271-1.348-3.521-1.172V4.15c0-2.289-1.862-4.15-4.153-4.15c-2.289,0-4.149,1.861-4.149,4.15v0.588
			c-1.25-0.176-2.564,0.215-3.521,1.172c-1.551,1.551-1.614,4.033-0.194,5.662c-0.466,0.277-0.872,0.645-1.198,1.074l-0.414-0.414
			c-0.783-0.785-1.826-1.217-2.938-1.217c-1.108,0-2.15,0.432-2.936,1.217c-1.619,1.619-1.619,4.254,0,5.873l0.422,0.422
			c-0.334,0.244-0.633,0.535-0.881,0.865l-0.414-0.414c-0.785-0.785-1.828-1.215-2.938-1.215c-1.106,0-2.149,0.43-2.937,1.215
			c-0.783,0.785-1.217,1.828-1.217,2.938c0,1.107,0.434,2.15,1.217,2.936l0.414,0.414c-1.006,0.758-1.66,1.965-1.66,3.318
			c0,2.24,1.781,4.07,4.004,4.15c-0.202,0.703-0.225,1.469-0.021,2.221c0.023,0.094,0.057,0.186,0.088,0.277h-5.072
			c-0.439,0-0.854,0.201-1.125,0.547c-0.271,0.344-0.369,0.795-0.268,1.221l2.316,9.658c-0.229,0.1-0.454,0.2-0.672,0.312
			c-2.7,1.352-4.188,3.264-4.188,5.383c0,2.121,1.487,4.03,4.188,5.383c0.146,0.072,0.295,0.144,0.445,0.211
			c-0.834,0.271-1.621,0.58-2.35,0.931c-3.229,1.55-5.008,3.733-5.008,6.149c0,2.42,1.777,4.604,5.008,6.154
			c2.895,1.389,6.711,2.153,10.746,2.153c0.092,0,0.184-0.002,0.271-0.002h45.389c0.67,0,1.25-0.465,1.396-1.114l7.977-35.235
			c0.002-0.016,0.004-0.027,0.006-0.043l2.369-10.459C445.472,24.443,444.989,22.338,443.685,20.707L443.685,20.707z
			 M425.313,38.098l-1.611,9.168h-12.396v-9.168H425.313z M422.429,54.506c-1.262-0.438-2.84-0.653-4.658-0.229
			c-0.148-1.739-0.764-3.104-1.502-4.146h6.932L422.429,54.506z M423.101,58.052c-0.33,1.028-1.262,2.93-3.743,3.735
			c-0.121,0.039-0.241,0.073-0.362,0.104c-1.535-1.261-3.193-1.718-4.479-1.856c0.425-0.822,1.158-1.779,2.418-2.427
			c0.293-0.149,0.609-0.282,0.939-0.392c2.156-0.698,3.846-0.051,4.846,0.574c0.018,0.011,0.031,0.019,0.047,0.028
			C422.888,57.899,422.999,57.978,423.101,58.052L423.101,58.052z M417.663,23.342c0.535,0.223,1.152,0.1,1.561-0.311l2.027-2.027
			c0.244-0.242,0.566-0.375,0.91-0.375s0.668,0.133,0.91,0.375c0.244,0.244,0.377,0.568,0.377,0.912s-0.133,0.668-0.377,0.91
			l-2.025,2.027c-0.41,0.41-0.533,1.025-0.311,1.561c0.221,0.535,0.742,0.885,1.322,0.885h0.135c0.709,0,1.285,0.576,1.285,1.285
			c0,0.711-0.576,1.289-1.285,1.289h-2.966c-0.7,0-1.302,0.508-1.413,1.199c-0.113,0.693,0.291,1.365,0.954,1.59
			c0.64,0.217,1.003,0.898,0.828,1.553c-0.185,0.686-0.894,1.094-1.578,0.908c-0.007-0.002-0.013-0.002-0.019-0.004l-5.426-1.377
			c-0.091-0.275-0.209-0.549-0.359-0.809c-0.389-0.674-0.941-1.201-1.584-1.555c0.72-0.77,1.113-1.768,1.113-2.828
			c0-1.107-0.436-2.15-1.22-2.934c-0.356-0.359-0.765-0.639-1.198-0.838c0.146-0.137,0.332-0.244,0.536-0.299
			c0.651-0.174,1.335,0.189,1.552,0.828c0.226,0.666,0.896,1.068,1.59,0.955c0.69-0.113,1.199-0.713,1.199-1.414v-2.963
			c0-0.711,0.578-1.289,1.287-1.289c0.711,0,1.286,0.578,1.286,1.289v0.133C416.778,22.6,417.128,23.121,417.663,23.342
			L417.663,23.342z M398.96,57.701c0.01,0.075,0.105,0.795,0.482,1.754c-0.345-0.201-0.707-0.396-1.093-0.58
			c-0.729-0.351-1.517-0.66-2.351-0.931c0.151-0.067,0.299-0.139,0.446-0.211c2.698-1.353,4.188-3.262,4.188-5.383
			c0-0.772-0.196-1.521-0.582-2.222h8.746c-0.733,1.039-1.348,2.404-1.496,4.146c-4.34-1.012-7.301,1.615-7.907,2.215
			C399.069,56.799,398.905,57.246,398.96,57.701L398.96,57.701z M399.302,31.559l-2.096-2.096c-0.502-0.504-0.502-1.32,0-1.822
			s1.318-0.502,1.82,0l0.094,0.096c0.41,0.408,1.027,0.531,1.563,0.311c0.535-0.223,0.884-0.744,0.884-1.324v-2.865
			c0-0.711,0.577-1.289,1.286-1.289c0.711,0,1.289,0.578,1.289,1.289v2.865c0,0.58,0.352,1.102,0.884,1.324
			c0.536,0.221,1.151,0.098,1.563-0.311l0.095-0.096c0.231-0.232,0.532-0.357,0.84-0.373c0.007,0,0.015,0,0.021,0
			c0.008,0,0.016-0.002,0.023-0.002c0.34-0.008,0.68,0.119,0.938,0.375c0.244,0.244,0.379,0.566,0.379,0.91
			c0,0.344-0.135,0.668-0.379,0.912l-2.096,2.096c-0.494,0.496-0.561,1.277-0.15,1.846c0.408,0.57,1.17,0.762,1.799,0.449
			c0.605-0.299,1.345-0.072,1.683,0.512c0.155,0.27,0.205,0.576,0.151,0.867h-14.067c-0.054-0.291-0.002-0.598,0.151-0.867
			c0.339-0.584,1.078-0.811,1.686-0.512c0.629,0.313,1.389,0.123,1.799-0.447C399.862,32.836,399.798,32.055,399.302,31.559
			L399.302,31.559z M408.44,38.115v9.15h-11.438c-0.182-0.102-0.364-0.201-0.557-0.297c-0.164-0.08-0.33-0.158-0.498-0.236
			l-1.52-8.633L408.44,38.115z M407.2,57.22c0.121,0.038,0.238,0.082,0.354,0.127c0.498,1.922,1.568,3.268,2.529,4.143
			c-0.824,0.41-1.975,0.753-3.367,0.539l0,0c-0.332-0.051-0.666-0.131-0.998-0.239c-2.479-0.806-3.412-2.705-3.744-3.735
			C402.888,57.377,404.741,56.42,407.2,57.22L407.2,57.22z M397.206,7.936c0.502-0.5,1.318-0.502,1.822,0l0.094,0.096
			c0.41,0.408,1.025,0.531,1.561,0.309c0.535-0.221,0.884-0.744,0.884-1.322V4.15c0-0.709,0.577-1.287,1.286-1.287
			c0.711,0,1.289,0.578,1.289,1.287v2.867c0,0.578,0.352,1.102,0.884,1.322c0.534,0.223,1.149,0.1,1.563-0.309l0.095-0.096
			c0.502-0.5,1.319-0.502,1.819,0c0.244,0.244,0.379,0.566,0.379,0.91c0,0.346-0.135,0.668-0.379,0.912l-1.588,1.59
			c-1.406,0.627-2.4,2.014-2.461,3.633c-0.507-0.145-1.05-0.191-1.6-0.129c-0.551-0.063-1.092-0.016-1.598,0.129
			c-0.061-1.619-1.057-3.006-2.461-3.633l-1.59-1.592C396.704,9.256,396.704,8.438,397.206,7.936L397.206,7.936z M389.526,14.258
			c0.502-0.502,1.316-0.502,1.819,0l2.026,2.027c0.408,0.408,1.023,0.531,1.562,0.311c0.534-0.223,0.886-0.744,0.886-1.324v-0.133
			c0-0.709,0.576-1.287,1.287-1.287s1.286,0.578,1.286,1.287v2.965c0,0.701,0.509,1.299,1.2,1.412
			c0.691,0.113,1.363-0.289,1.589-0.953c0.2-0.592,0.815-0.959,1.433-0.854c0.158,0.025,0.319,0.025,0.479,0
			c0.615-0.105,1.23,0.262,1.432,0.854c0.225,0.664,0.896,1.066,1.59,0.953c0.69-0.113,1.201-0.711,1.201-1.412v-2.965
			c0-0.709,0.575-1.287,1.286-1.287c0.709,0,1.287,0.578,1.287,1.287v0.133c0,0.58,0.351,1.102,0.884,1.324
			c0.534,0.221,1.15,0.098,1.561-0.311l2.027-2.027c0.504-0.502,1.319-0.502,1.821,0c0.241,0.244,0.377,0.566,0.377,0.912
			c0,0.344-0.136,0.666-0.377,0.908l-1.812,1.809c-1.701,0.479-2.965,2.014-3.029,3.85c-0.705-0.203-1.469-0.223-2.221-0.021
			c-0.884,0.234-1.636,0.758-2.177,1.443c-0.332-1.957-2.041-3.455-4.095-3.455c-1.994,0-3.666,1.416-4.061,3.297
			c-0.533-0.615-1.244-1.066-2.062-1.285c-0.754-0.201-1.519-0.182-2.222,0.021c-0.064-1.906-1.426-3.488-3.227-3.898l-1.76-1.76
			c-0.243-0.242-0.377-0.566-0.377-0.91C389.146,14.825,389.282,14.502,389.526,14.258L389.526,14.258z M382.374,28.584
			c0-0.709,0.578-1.285,1.289-1.285h0.133c0.578,0,1.103-0.35,1.322-0.885c0.22-0.535,0.1-1.152-0.312-1.561l-2.026-2.029
			c-0.502-0.5-0.502-1.316,0-1.82c0.244-0.242,0.567-0.375,0.912-0.375c0.344,0,0.666,0.133,0.909,0.375l2.024,2.027
			c0.41,0.41,1.026,0.533,1.563,0.311c0.535-0.221,0.884-0.744,0.884-1.322v-0.135c0-0.709,0.578-1.287,1.287-1.287
			c0.711,0,1.288,0.578,1.288,1.287v2.965c0,0.701,0.509,1.299,1.198,1.414c0.691,0.113,1.365-0.291,1.591-0.955
			c0.218-0.639,0.897-1.004,1.552-0.828c0.186,0.051,0.352,0.139,0.489,0.258c-0.472,0.201-0.914,0.492-1.3,0.877
			c-1.584,1.584-1.618,4.139-0.104,5.764c-0.645,0.354-1.195,0.881-1.587,1.555c-0.157,0.273-0.28,0.559-0.37,0.85l-5.27,1.336
			c-0.006,0.002-0.012,0.002-0.018,0.004c-0.687,0.186-1.396-0.223-1.578-0.91c-0.174-0.654,0.188-1.334,0.828-1.551
			c0.664-0.225,1.067-0.898,0.953-1.59c-0.113-0.691-0.711-1.199-1.412-1.199h-2.963C382.952,29.873,382.374,29.295,382.374,28.584
			L382.374,28.584z M391.524,38.098l1.336,7.607c-1.634-0.386-3.418-0.586-5.259-0.586c-1.909,0-3.761,0.219-5.442,0.631
			l-1.838-7.652H391.524z M377.435,52.353c0-2.063,4.35-4.369,10.168-4.369c5.82,0,10.171,2.308,10.171,4.369
			c0,2.063-4.351,4.369-10.171,4.369C381.783,56.722,377.435,54.414,377.435,52.353L377.435,52.353z M397.11,68.599
			c-2.449,1.176-5.72,1.836-9.229,1.868h-0.28c-0.019,0-0.034,0-0.052,0.003c-3.596-0.007-6.952-0.671-9.457-1.871
			c-2.148-1.033-3.383-2.332-3.383-3.572c0-1.235,1.231-2.537,3.383-3.567c2.518-1.209,5.895-1.873,9.509-1.873
			c3.616,0,6.991,0.664,9.509,1.873c2.148,1.03,3.383,2.332,3.383,3.567C400.493,66.267,399.261,67.563,397.11,68.599L397.11,68.599
			z M399.661,70.467c1.719-1.059,2.873-2.334,3.389-3.731c-0.324,1.423-0.221,2.722,0,3.731H399.661z M403.269,65.959
			c0.061-0.308,0.091-0.617,0.091-0.935c0-0.414-0.056-0.821-0.157-1.221c0.271,0.149,0.563,0.295,0.871,0.426
			C403.718,64.813,403.458,65.394,403.269,65.959L403.269,65.959z M411.257,67.188L411.257,67.188
			c-0.149,0.301-0.33,0.597-0.535,0.877c-1.424,1.961-3.33,2.354-4.467,2.399h-0.246c-0.356-1.077-0.69-3.135,0.826-5.226
			c0.076-0.104,0.154-0.202,0.236-0.303c0.17,0.012,0.336,0.019,0.5,0.019c1.752,0,3.184-0.554,4.211-1.142
			C411.921,64.729,411.89,65.931,411.257,67.188L411.257,67.188z M412.462,70.467c0.025-0.026,0.049-0.055,0.074-0.081
			c0.022,0.026,0.049,0.055,0.072,0.081H412.462z M411.771,59.146c-0.646-0.656-1.325-1.646-1.553-3.035l-0.002-0.002
			c-0.053-0.33-0.08-0.674-0.08-1.021c0-2.606,1.519-4.08,2.396-4.715c0.922,0.662,2.406,2.127,2.406,4.715
			c0,0.125-0.005,0.25-0.014,0.373C413.253,56.528,412.302,57.965,411.771,59.146L411.771,59.146z M419.065,70.467h-0.27
			c-1.133-0.049-3.026-0.448-4.446-2.399c-0.073-0.103-0.144-0.207-0.211-0.313c0.726-1.85,0.647-3.563,0.386-4.834
			c0.909,0.148,2.041,0.553,3.043,1.543c0.239,0.232,0.465,0.498,0.67,0.779C419.755,67.332,419.421,69.39,419.065,70.467
			L419.065,70.467z M432.118,70.467h-10.098c0.348-1.581,0.408-3.872-1.021-6.235c4.498-1.896,5.088-6.332,5.111-6.528
			c0.057-0.455-0.109-0.901-0.436-1.209c-0.111-0.113-0.314-0.304-0.598-0.527l1.024-5.834h10.614L432.118,70.467z M425.577,56.403
			c0.045,0.033,0.076,0.063,0.098,0.082C425.645,56.457,425.612,56.431,425.577,56.403L425.577,56.403z M437.37,47.267h-10.762
			l1.609-9.167h1.939h0.004c0.002,0,0.004,0,0.006,0h9.277L437.37,47.267z M442.218,25.848l-2.125,9.385h-8.137l2.52-11.137
			c0.414-1.822,2.006-3.094,3.871-3.094c1.213,0,2.346,0.545,3.104,1.492C442.204,23.441,442.485,24.664,442.218,25.848
			L442.218,25.848z"/>
		<path fill="#008A2E" d="M385.872,66.549c-4.473-0.508-6.279-2.022-6.279-2.569c0-0.791-0.643-1.433-1.434-1.433
			s-1.433,0.642-1.433,1.433c0,2.726,3.382,4.799,8.821,5.416c0.057,0.006,0.109,0.01,0.164,0.01c0.72,0,1.338-0.541,1.422-1.27
			C387.224,67.347,386.659,66.64,385.872,66.549L385.872,66.549z"/>
		<path fill="#008A2E" d="M390.796,66.556c-0.791,0-1.434,0.641-1.434,1.432s0.643,1.433,1.434,1.433h0.006
			c0.791,0,1.431-0.642,1.431-1.433S391.587,66.556,390.796,66.556L390.796,66.556z"/>
	</g>
	<g>
		<path fill="#008A2E" d="M340.177,58.067l11.842-19.875l5.369-5.445c2.25,1.195,5.196,0.451,6.525-1.943
			c6.041-10.889,5.975-10.434,5.975-11.771c0-3.197-3.737-5.012-5.942-3.102c-19.97,17.428-15.032,13.111-21.435,18.725
			c-0.877-3.623-5.767-4.537-5.767-2.125c0,0.742,0.603,1.344,1.345,1.344c0.496,0,0.967,0.193,1.314,0.541
			c1.184,1.188,0.319,3.182-1.396,3.182H306.03c-0.742,0-1.345,0.602-1.345,1.342c0,0.744,0.603,1.348,1.345,1.348h7.509
			l11.743,10.273l-1.123,2.992c-0.537,1.428,1.354,2.484,2.3,1.32c0.194-0.238,0.126-0.133,1.549-3.926l19.503-17.102
			c1.459,2.689,1.026,1.891,1.892,3.482c-12.416,20.844-11.622,19.491-11.69,19.666c-0.098,0.256-2.463,6.248-8.153,6.248
			c-5.198,0-5.405,0.433-6.388-1.015c-0.58-0.854-12.189-7.894-17.037-12.453c-0.541-0.51-1.391-0.483-1.898,0.058
			c-0.511,0.541-0.483,1.392,0.058,1.899c3.093,2.91,4.618,3.783,15.878,11.576h-18.966c-0.742,0-1.345,0.603-1.345,1.346
			c0,0.742,0.603,1.345,1.345,1.345h53.218c0.741,0,1.344-0.603,1.344-1.345c0-0.743-0.603-1.346-1.344-1.346h-17.981
			C338.778,61.269,339.929,58.677,340.177,58.067L340.177,58.067z M365.708,17.961c0.404-0.352,1.49,0.109,1.49,1.072
			c0,0.457,0.317-0.266-5.638,10.467c-0.688,1.244-2.37,1.504-3.403,0.521c-0.531-0.508-1.369-0.494-1.885,0.027l-5.009,5.078
			l-1.681-3.096L365.708,17.961z M336.091,40.287l-9.224,8.088l-9.244-8.088H336.091z"/>
		<path fill="#008A2E" d="M300.729,45.433c-0.628,0.397-0.813,1.229-0.416,1.854c0.098,0.153,0.191,0.301,0.288,0.438
			c0.421,0.606,1.257,0.767,1.869,0.342c0.611-0.422,0.767-1.258,0.345-1.869c-0.076-0.11-0.152-0.229-0.23-0.352
			C302.188,45.222,301.358,45.035,300.729,45.433L300.729,45.433z"/>
		<path fill="#008A2E" d="M288.694,23.379c0.318,4.16,2.93,7.695,6.645,9.41c0.419,2.924,1.332,6.319,2.549,9.457
			c0.207,0.532,0.715,0.856,1.254,0.856c0.943,0,1.595-0.949,1.254-1.83c-0.972-2.502-1.733-5.169-2.184-7.583
			c1.739,0.309,3.182,0.285,4.537-0.381c1.682,0.672,1.092,0.57,3.127,0.557c0.129,0.016-0.393,0.01,24.473,0.01
			c3.488,0,4.998-1.51,7.086-3.6c0.525-0.525,0.525-1.375,0-1.9c-0.521-0.525-1.375-0.525-1.898,0
			c-1.931,1.93-2.813,2.811-5.188,2.811c-29.157,0-24.771-0.006-25.302-0.004c0.956-1.629,0.727-2.322,0.727-9.672
			c0-6.115-6.647-10.32-12.438-7.445c-1.988-3.318-7.066-2.848-8.359,0.816c-0.826,2.346-1.672,3.867-0.668,5.922
			C285.132,22.498,286.876,23.461,288.694,23.379L288.694,23.379z M301.903,18.102c-1.242,1.705-3.232,2.668-5.309,2.668
			c-0.742,0-1.346,0.6-1.346,1.344c0,0.74,0.604,1.344,1.346,1.344c2.483,0,4.785-0.979,6.449-2.584
			c0.054,0.455,0.038,0.092,0.038,7.65c0,1.469-1.247,2.662-2.777,2.662c-2.169,0-4.128-0.744-5.646-1.939l1.072-2.666
			c0.361-0.895-0.313-1.861-1.27-1.846c-0.525,0.008-1.018,0.326-1.225,0.842l-0.584,1.451c-0.848-1.338-1.313-2.883-1.313-4.516
			c0-0.133-0.016-0.096,0.079-0.174c0.669-0.543,1.153-1.246,1.427-2.014c0.858-2.441,1.033-2.82,1.104-3.527
			C296.497,15.158,299.995,15.652,301.903,18.102L301.903,18.102z M286.642,18.238l0.867-2.463c0.274-0.777,1.027-1.264,1.836-1.264
			c1.318,0,2.268,1.24,1.838,2.457c-0.875,2.482-0.912,3.006-1.703,3.457C287.883,21.33,286.077,19.838,286.642,18.238
			L286.642,18.238z"/>
	</g>
	<g>
		<path fill="#008A2E" d="M141.333,14.512c-3.229-0.777-7.5-1.203-12.022-1.203c-4.524,0-8.794,0.426-12.024,1.203
			c-4.039,0.971-6.002,2.373-6.002,4.287c0,1.916,1.963,3.316,6.002,4.287c3.23,0.777,7.5,1.203,12.024,1.203
			c4.522,0,8.794-0.426,12.022-1.203c1.152-0.277,2.135-0.59,2.951-0.938v3.023c-0.279,0.301-1.461,1.029-4.486,1.658
			c-2.896,0.604-6.62,0.936-10.487,0.936c-5.052,0-9.833-0.572-12.792-1.531c-0.805-0.262-1.662,0.178-1.925,0.979
			c-0.259,0.805,0.183,1.664,0.981,1.926c3.295,1.066,8.301,1.678,13.734,1.678c4.521,0,8.794-0.426,12.021-1.203
			c0.403-0.098,0.787-0.197,1.148-0.303l-4.461,33.463l-0.081,0.273c-0.278,0.303-2.724,1.029-5.747,1.658
			c-2.896,0.604-4.479,0.938-8.347,0.938c-2.452,0-4.194-0.141-5.948-0.389c-0.158-0.055-0.324-0.09-0.5-0.09
			c-0.859,0-1.559,0.695-1.559,1.561c0,0.857,0.697,1.555,1.559,1.555c0.013,0,0.022-0.002,0.035-0.002
			c1.944,0.271,3.775,0.416,6.415,0.416c4.522,0,7.909-0.426,11.141-1.203c0.194-0.047,0.386-0.094,0.571-0.145l0,0
			c1.189-0.457,3.536-1.08,4.697-2.32c0.098-0.107,0.176-0.219,0.253-0.332c0.211-0.215,0.362-0.49,0.415-0.813l4.894-36.037
			c1.017-0.717,1.518-1.553,1.518-2.52v-6.527C147.336,16.885,145.372,15.482,141.333,14.512z M139.798,20.303
			c-2.896,0.604-6.621,0.936-10.488,0.936s-7.594-0.332-10.488-0.936c-2.588-0.539-3.828-1.15-4.309-1.504
			c0.479-0.352,1.719-0.965,4.309-1.504c2.896-0.604,6.621-0.934,10.488-0.934s7.594,0.33,10.488,0.934
			c2.592,0.539,3.828,1.152,4.308,1.504C143.626,19.152,142.387,19.764,139.798,20.303z"/>
		<path fill="#008A2E" d="M107.662,16.688c-0.007-0.016-0.017-0.033-0.021-0.049c-0.717-1.445-1.488-3.092-2.314-5.146v-0.449
			c0.68-0.754,1.095-1.754,1.095-2.848V5.26c0-2.348-1.911-4.26-4.259-4.26H89.901c-2.349,0-4.258,1.912-4.258,4.26v2.39L81.624,6
			c-0.778-0.32-1.67,0.049-1.992,0.828C79.313,7.607,79.687,8.5,80.464,8.82l4.463,1.838l-6.904,4.293
			c-0.717,0.445-0.938,1.387-0.49,2.102c0.446,0.715,1.387,0.936,2.102,0.49l6.169-3.836c-0.479,1.086-0.939,2.047-1.379,2.932
			c-0.007,0.016-0.015,0.031-0.021,0.049c-0.241,0.488-0.479,0.953-0.703,1.406c-1.853,3.68-3.189,6.338-3.189,11.494v36.07
			c0,4.924,4.164,8.932,9.282,8.932c0.845,0,1.526-0.687,1.526-1.526c0-0.842-0.685-1.524-1.526-1.524
			c-3.436,0-6.229-2.638-6.229-5.879V29.59c0-4.432,1.078-6.574,2.862-10.123c0.101-0.195,0.198-0.396,0.304-0.602h18.612
			c0.104,0.205,0.204,0.406,0.304,0.602c1.785,3.549,2.861,5.691,2.861,10.123v24.224v9.276v2.57c0,3.241-2.795,5.879-6.229,5.879
			h-5.365v0.021c-0.832,0.006-1.506,0.683-1.506,1.519c0,0.838,0.68,1.519,1.518,1.519c0.018,0,0.029-0.005,0.045-0.005h5.307h0.004
			h0.008h0.051v-0.004c5.094-0.03,9.225-4.022,9.225-8.928v-2.57v-9.276V29.588c0-5.156-1.336-7.814-3.188-11.494
			C108.14,17.643,107.905,17.176,107.662,16.688z M88.694,5.26c0-0.666,0.541-1.207,1.205-1.207h12.262
			c0.666,0,1.207,0.541,1.207,1.207v2.936c0,0.375-0.171,0.709-0.438,0.93c-0.031,0.021-0.063,0.047-0.095,0.068
			c-0.19,0.133-0.425,0.209-0.675,0.209H89.899c-0.248,0-0.479-0.076-0.67-0.203c-0.033-0.027-0.068-0.053-0.104-0.076
			c-0.265-0.223-0.433-0.555-0.433-0.926L88.694,5.26L88.694,5.26z M88.198,15.813c0.461-1.006,0.946-2.121,1.444-3.365
			c0.085,0.004,0.171,0.006,0.257,0.006h12.262c0.086,0,0.172-0.002,0.258-0.006c0.498,1.244,0.982,2.359,1.443,3.365H88.198z"/>
		<path fill="#008A2E" d="M103.751,66.049c0.842,0,1.525-0.685,1.525-1.526V30.123c0-2.928-0.414-5.215-1.384-7.645
			c-0.313-0.783-1.2-1.166-1.983-0.854c-0.783,0.314-1.164,1.201-0.854,1.984c0.828,2.076,1.166,3.965,1.166,6.514v34.398
			C102.222,65.364,102.907,66.049,103.751,66.049z"/>
	</g>
</g>
<g id="Layer_2">
</g>
</svg>
