<?xml version="1.0" encoding="utf-8"?>
<!-- Generator: Adobe Illustrator 16.0.0, SVG Export Plug-In . SVG Version: 6.00 Build 0)  -->
<!DOCTYPE svg PUBLIC "-//W3C//DTD SVG 1.1//EN" "http://www.w3.org/Graphics/SVG/1.1/DTD/svg11.dtd">
<svg version="1.1" xmlns="http://www.w3.org/2000/svg" xmlns:xlink="http://www.w3.org/1999/xlink" x="0px" y="0px"
	 width="56.564px" height="52.362px" viewBox="0 0 56.564 52.362" enable-background="new 0 0 56.564 52.362" xml:space="preserve">
<g id="Layer_1">
	<g>
		<g>
			<g>
				<g>
					<path fill="#FFFFFF" d="M5.718,51.646c6.963-8.705,14.531-18.281,23.814-24.579c0.708-0.481,1.07-1.596,0.294-2.209
						c-9.019-7.12-19.262-14.713-25.95-24.15C2.739-0.896-0.995,0.501,0.251,2.26c6.874,9.698,17.226,17.48,26.489,24.795
						c0.098-0.736,0.196-1.473,0.294-2.209C17.476,31.331,9.685,41.1,2.521,50.056C0.95,52.019,4.473,53.202,5.718,51.646
						L5.718,51.646z"/>
				</g>
			</g>
		</g>
		<g>
			<g>
				<g>
					<path fill="#FFFFFF" d="M50.848,0.688C43.514,9.334,35.818,18.07,27.034,25.268c-0.65,0.533-1.116,1.56-0.294,2.209
						c9.018,7.121,19.259,14.714,25.948,24.15c1.137,1.603,4.871,0.206,3.625-1.553c-6.875-9.697-17.225-17.479-26.487-24.795
						c-0.098,0.736-0.196,1.473-0.294,2.209c9.036-7.405,16.969-16.316,24.513-25.21C55.67,0.362,52.133-0.827,50.848,0.688
						L50.848,0.688z"/>
				</g>
			</g>
		</g>
	</g>
</g>
<g id="Layer_2">
</g>
</svg>
