<?xml version="1.0" encoding="utf-8"?>
<!-- Generator: Adobe Illustrator 16.0.0, SVG Export Plug-In . SVG Version: 6.00 Build 0)  -->
<!DOCTYPE svg PUBLIC "-//W3C//DTD SVG 1.1//EN" "http://www.w3.org/Graphics/SVG/1.1/DTD/svg11.dtd">
<svg version="1.1" xmlns="http://www.w3.org/2000/svg" xmlns:xlink="http://www.w3.org/1999/xlink" x="0px" y="0px"
	 width="367.771px" height="73.229px" viewBox="0 0 367.771 73.229" enable-background="new 0 0 367.771 73.229"
	 xml:space="preserve">
<g id="Layer_1">
	<g>
		<path d="M362.05,13.844h-57.208c-3.158,0.006-5.718,2.563-5.722,5.722v13.731c0.004,3.156,2.563,5.716,5.722,5.719h57.208
			c3.159-0.003,5.718-2.563,5.722-5.719V19.566C367.768,16.407,365.209,13.85,362.05,13.844L362.05,13.844z M365.483,33.297
			c0,1.893-1.537,3.431-3.434,3.431h-57.208c-1.896,0-3.433-1.538-3.433-3.431V19.566c0-1.896,1.537-3.433,3.433-3.433h57.208
			c1.896,0,3.434,1.537,3.434,3.433V33.297z M365.483,33.297"/>
		<path d="M362.05,18.421h-6.864c-0.632,0-1.144,0.513-1.144,1.145v4.577c0,0.631,0.512,1.145,1.144,1.145h6.864
			c0.633,0,1.145-0.514,1.145-1.145v-4.577C363.194,18.934,362.683,18.421,362.05,18.421L362.05,18.421z M360.907,22.999h-4.577
			v-2.289h4.577V22.999z M360.907,22.999"/>
		<path d="M348.32,22.999h2.288c0.633,0,1.145-0.512,1.145-1.145c0-0.632-0.512-1.145-1.145-1.145h-2.288
			c-0.632,0-1.144,0.513-1.144,1.145C347.177,22.487,347.688,22.999,348.32,22.999L348.32,22.999z M348.32,22.999"/>
		<path d="M341.455,22.999h2.288c0.633,0,1.145-0.512,1.145-1.145c0-0.632-0.512-1.145-1.145-1.145h-2.288
			c-0.631,0-1.144,0.513-1.144,1.145C340.312,22.487,340.824,22.999,341.455,22.999L341.455,22.999z M341.455,22.999"/>
		<path d="M362.05,27.575h-57.208c-0.632,0-1.145,0.513-1.145,1.144c0,0.632,0.513,1.146,1.145,1.146h57.208
			c0.633,0,1.145-0.514,1.145-1.146C363.194,28.087,362.683,27.575,362.05,27.575L362.05,27.575z M362.05,27.575"/>
		<path d="M362.05,32.151h-57.208c-0.632,0-1.145,0.514-1.145,1.146c0,0.631,0.513,1.143,1.145,1.143h57.208
			c0.633,0,1.145-0.512,1.145-1.143C363.194,32.665,362.683,32.151,362.05,32.151L362.05,32.151z M362.05,32.151"/>
		<path d="M304.842,22.999h3.432c0.632,0,1.146-0.512,1.146-1.145c0-0.632-0.514-1.145-1.146-1.145h-3.432
			c-0.632,0-1.145,0.513-1.145,1.145C303.697,22.487,304.21,22.999,304.842,22.999L304.842,22.999z M304.842,22.999"/>
		<path d="M314.636,53.901c2.966-3.616,1.682-10.251,1.625-10.525c-0.143-0.6-0.734-0.98-1.338-0.859
			c-0.605,0.122-1.005,0.699-0.904,1.309c0.321,1.613,0.746,6.318-1.152,8.631c-0.859,0.996-2.137,1.529-3.447,1.437
			c-2.204,0-3.8-0.79-4.377-2.168c-0.366-0.764-0.25-1.673,0.299-2.319c0.722-0.566,1.716-0.635,2.507-0.17
			c0.588,0.232,1.255-0.051,1.489-0.638c0.234-0.589-0.051-1.255-0.637-1.49c-1.646-0.833-3.635-0.558-4.99,0.692
			c-1.189,1.306-1.495,3.191-0.778,4.806c0.938,2.239,3.362,3.575,6.487,3.575C311.417,56.278,313.349,55.436,314.636,53.901
			L314.636,53.901z M314.636,53.901"/>
		<path d="M324.262,43.332c-0.083-0.409-0.382-0.739-0.78-0.862c-0.398-0.125-0.832-0.021-1.133,0.268
			c-0.301,0.287-0.421,0.717-0.313,1.119c0.03,0.131,2.922,13.032-8.66,20.518c-0.355,0.215-0.564,0.608-0.548,1.021
			c0.018,0.416,0.258,0.791,0.629,0.978c0.372,0.185,0.815,0.155,1.158-0.079C327.54,57.944,324.293,43.481,324.262,43.332
			L324.262,43.332z M324.262,43.332"/>
		<path d="M329.839,42.463c-0.623,0.096-1.052,0.68-0.955,1.305c0.021,0.144,2.129,14.547-5.527,25.486
			c-0.25,0.336-0.298,0.778-0.125,1.157c0.172,0.38,0.537,0.636,0.953,0.667c0.416,0.033,0.816-0.164,1.045-0.512
			c8.178-11.684,6.012-26.521,5.914-27.148C331.048,42.795,330.464,42.368,329.839,42.463L329.839,42.463z M329.839,42.463"/>
		<path d="M305.985,59.612c-1.895,0-3.432,1.537-3.432,3.433c0,1.897,1.537,3.433,3.432,3.433c1.896,0,3.434-1.535,3.434-3.433
			C309.419,61.149,307.882,59.612,305.985,59.612L305.985,59.612z M305.985,64.19c-0.632,0-1.144-0.514-1.144-1.146
			s0.512-1.144,1.144-1.144s1.145,0.512,1.145,1.144S306.617,64.19,305.985,64.19L305.985,64.19z M305.985,64.19"/>
		<path d="M363.96,52.608c0.818-1.637,0.475-3.616-0.852-4.881c-1.324-1.263-3.318-1.515-4.916-0.62
			c-0.587,0.235-0.871,0.901-0.638,1.49c0.235,0.587,0.901,0.87,1.489,0.638c0.792-0.465,1.785-0.396,2.508,0.17
			c0.548,0.646,0.664,1.556,0.298,2.319c-0.577,1.378-2.173,2.168-4.376,2.168c-1.311,0.091-2.587-0.442-3.445-1.438
			c-2.281-2.777-1.164-8.58-1.153-8.637c0.125-0.619-0.275-1.225-0.896-1.348c-0.619-0.125-1.223,0.275-1.348,0.896
			c-0.057,0.282-1.341,6.915,1.624,10.527c1.286,1.537,3.216,2.383,5.218,2.288C360.599,56.18,363.023,54.844,363.96,52.608
			L363.96,52.608z M363.96,52.608"/>
		<path d="M344.87,43.797c0.112-0.621-0.3-1.217-0.922-1.33c-0.621-0.112-1.218,0.301-1.33,0.92
			c-0.099,0.543-2.26,13.373,10.699,23.977c0.316,0.266,0.75,0.342,1.137,0.198c0.388-0.146,0.666-0.487,0.73-0.895
			c0.065-0.407-0.096-0.819-0.42-1.074C342.924,55.903,344.838,43.981,344.87,43.797L344.87,43.797z M344.87,43.797"/>
		<path d="M338.022,43.672c0.044-0.633-0.434-1.18-1.065-1.223c-0.632-0.044-1.179,0.435-1.223,1.065
			c-0.04,0.571-0.938,14.101,2.562,22.269c0.18,0.421,0.596,0.695,1.054,0.693c0.155,0.002,0.308-0.029,0.448-0.092
			c0.582-0.25,0.85-0.921,0.602-1.503C337.12,57.223,338.011,43.809,338.022,43.672L338.022,43.672z M338.022,43.672"/>
		<path d="M362.05,64.19c-1.895,0-3.432,1.536-3.432,3.432c0,1.895,1.537,3.433,3.432,3.433c1.896,0,3.434-1.538,3.434-3.433
			C365.483,65.726,363.946,64.19,362.05,64.19L362.05,64.19z M362.05,68.766c-0.631,0-1.143-0.512-1.143-1.145
			s0.512-1.145,1.143-1.145c0.633,0,1.145,0.512,1.145,1.145S362.683,68.766,362.05,68.766L362.05,68.766z M362.05,68.766"/>
	</g>
	<g>
		<path d="M72.153,59.616h-0.071V48.081c0-2.756-1.977-5.055-4.586-5.559V30.883c0-3.122-2.54-5.66-5.662-5.66H11.393
			c-3.121,0-5.66,2.538-5.66,5.66v11.639c-2.609,0.504-4.586,2.803-4.586,5.559v11.535H1.074C0.48,59.616,0,60.097,0,60.69v11.463
			c0,0.596,0.48,1.076,1.074,1.076h5.732c0.439,0,0.835-0.269,0.998-0.676l2.022-5.057H63.4l2.021,5.057
			c0.164,0.407,0.561,0.676,0.998,0.676h5.733c0.593,0,1.075-0.48,1.075-1.076V60.69C73.229,60.097,72.746,59.616,72.153,59.616
			L72.153,59.616z M11.393,27.372h50.441c1.938,0,3.512,1.576,3.512,3.512v11.535h-3.582v-7.843l1.033-2.065
			c0.207-0.413,0.125-0.914-0.202-1.241s-0.827-0.409-1.24-0.201l-1.92,0.96c-2.579-0.713-5.239-1.073-7.917-1.073
			s-5.338,0.36-7.918,1.073l-1.918-0.96c-0.415-0.208-0.915-0.126-1.242,0.201s-0.408,0.828-0.201,1.241l1.033,2.065v7.843h-9.315
			v-7.843l1.034-2.065c0.205-0.413,0.125-0.914-0.203-1.241c-0.326-0.327-0.826-0.409-1.24-0.201l-1.92,0.96
			c-2.578-0.713-5.24-1.073-7.916-1.073c-2.678,0-5.34,0.36-7.918,1.073l-1.92-0.96c-0.414-0.208-0.914-0.126-1.24,0.201
			c-0.328,0.327-0.408,0.828-0.201,1.241l1.033,2.065v7.843H7.881V30.883C7.881,28.948,9.457,27.372,11.393,27.372L11.393,27.372z
			 M59.617,43.568c-0.127-0.009-0.254,0.005-0.375,0.04c-2.512,0.732-5.109,1.104-7.725,1.104c-2.616,0-5.214-0.371-7.725-1.104
			c-0.098-0.028-0.199-0.042-0.301-0.042c-0.025,0-0.049,0-0.074,0.002c0.002-0.024,0.002-0.049,0.002-0.073v-9.172
			c0-0.024,0-0.051-0.002-0.075c0.125,0.009,0.252-0.005,0.375-0.04c2.511-0.732,5.108-1.103,7.725-1.103
			c2.615,0,5.213,0.37,7.725,1.103c0.121,0.035,0.248,0.049,0.375,0.04c-0.002,0.024-0.003,0.051-0.003,0.075v9.172
			C59.614,43.519,59.615,43.543,59.617,43.568L59.617,43.568z M29.811,43.568c-0.127-0.009-0.254,0.005-0.377,0.04
			c-2.51,0.732-5.108,1.104-7.723,1.104c-2.616,0-5.215-0.371-7.725-1.104c-0.1-0.028-0.2-0.042-0.301-0.042
			c-0.025,0-0.051,0-0.074,0.002c0.002-0.024,0.002-0.049,0.002-0.073v-9.172c0-0.024,0-0.051-0.002-0.075
			c0.125,0.009,0.252-0.005,0.375-0.04c2.51-0.732,5.108-1.103,7.725-1.103c2.614,0,5.213,0.37,7.723,1.103
			c0.123,0.035,0.25,0.049,0.377,0.04c-0.003,0.024-0.004,0.051-0.004,0.075v9.172C29.807,43.519,29.808,43.543,29.811,43.568
			L29.811,43.568z M3.297,51.446H23c0.594,0,1.074-0.48,1.074-1.074c0-0.592-0.48-1.074-1.074-1.074H3.297v-1.217
			c0-1.938,1.574-3.512,3.51-3.512H10.8l-0.368,0.736c-0.207,0.415-0.127,0.914,0.201,1.241c0.326,0.328,0.826,0.408,1.24,0.202
			l1.92-0.961c2.578,0.713,5.24,1.075,7.918,1.075c2.676,0,5.338-0.362,7.916-1.075l1.92,0.959c0.409,0.207,0.918,0.123,1.24-0.2
			c0.328-0.329,0.408-0.826,0.203-1.241l-0.369-0.736h7.986l-0.369,0.736c-0.207,0.415-0.126,0.914,0.201,1.241
			c0.327,0.328,0.827,0.408,1.24,0.202l1.92-0.961c2.579,0.713,5.24,1.075,7.918,1.075c2.676,0,5.338-0.362,7.917-1.075l1.919,0.961
			c0.41,0.205,0.918,0.121,1.241-0.202c0.327-0.327,0.409-0.826,0.202-1.241l-0.369-0.736h3.992c1.938,0,3.512,1.574,3.512,3.512
			v1.217H28.063c-0.593,0-1.074,0.482-1.074,1.074c0,0.594,0.481,1.074,1.074,1.074h41.869v8.17H3.297V51.446z M71.078,71.079h-3.93
			l-2.021-5.056c-0.165-0.409-0.56-0.677-0.999-0.677H9.1c-0.439,0-0.834,0.268-0.998,0.677l-2.023,5.056h-3.93v-9.313h68.93V71.079
			z M71.078,71.079"/>
		<path d="M22.857,20.494h27.514c0.594,0,1.075-0.482,1.075-1.074V1.076C51.446,0.482,50.965,0,50.371,0H22.857
			c-0.594,0-1.076,0.482-1.076,1.076v18.343C21.781,20.011,22.264,20.494,22.857,20.494L22.857,20.494z M23.932,2.15h25.364v16.193
			H23.932V2.15z M23.932,2.15"/>
		<path d="M46.932,3.44H26.295c-0.592,0-1.074,0.482-1.074,1.076v11.463c0,0.593,0.482,1.075,1.074,1.075h20.637
			c0.594,0,1.074-0.482,1.074-1.075V4.516C48.006,3.922,47.525,3.44,46.932,3.44L46.932,3.44z M39.873,5.59
			c-0.305,0.676-0.496,1.326-0.617,1.88c-2.768-1.103-4.99-0.345-6.443,0.58c-1.178,0.749-2,1.706-2.433,2.283
			c-1.15,0.062-2.153,0.312-3.009,0.741V5.59H39.873z M45.857,14.905H27.371v-1.191c0.781-0.826,1.984-1.245,3.582-1.245
			c0.378,0,0.727-0.197,0.922-0.522c0.117-0.195,2.941-4.777,7.697-1.924c0.33,0.199,0.742,0.203,1.077,0.014
			c0.337-0.188,0.546-0.545,0.55-0.93c0-0.02,0.029-1.859,1.113-3.516h3.545V14.905z M45.857,14.905"/>
		<path d="M43.492,13.616c0.594,0,1.074-0.482,1.074-1.076v-1.146c0-0.595-0.48-1.075-1.074-1.075s-1.074,0.48-1.074,1.075v1.146
			C42.418,13.133,42.898,13.616,43.492,13.616L43.492,13.616z M43.492,13.616"/>
		<path d="M36.613,10.319c-0.592,0-1.074,0.48-1.074,1.075v1.146c0,0.594,0.482,1.076,1.074,1.076c0.594,0,1.076-0.482,1.076-1.076
			v-1.146C37.689,10.799,37.207,10.319,36.613,10.319L36.613,10.319z M36.613,10.319"/>
	</g>
	<g>
		<path d="M192.244,16.092c-0.225-0.225-0.535-0.354-0.854-0.354c-0.319,0-0.63,0.129-0.855,0.354
			c-0.224,0.227-0.353,0.537-0.353,0.855c0,0.317,0.129,0.631,0.353,0.854c0.226,0.226,0.536,0.355,0.855,0.355
			c0.318,0,0.629-0.13,0.854-0.355c0.225-0.223,0.354-0.536,0.354-0.854C192.599,16.629,192.469,16.319,192.244,16.092
			L192.244,16.092z M192.244,16.092"/>
		<path d="M231.426,15.739h-34.881c-0.667,0-1.209,0.543-1.209,1.209c0,0.667,0.542,1.209,1.209,1.209h33.672v9.889l-22.041,22.04
			c-0.471,0.474-0.471,1.237,0,1.708c0.236,0.236,0.546,0.355,0.854,0.355c0.31,0,0.62-0.119,0.855-0.355l20.331-20.329v25.84
			h-57.031V18.157h12.929c0.667,0,1.208-0.542,1.208-1.209c0-0.666-0.541-1.209-1.208-1.209h-14.138
			c-0.668,0-1.208,0.543-1.208,1.209v41.564c0,0.668,0.54,1.21,1.208,1.21h20.783v4.108h-7.008c-0.668,0-1.209,0.54-1.209,1.207
			v3.627h-6.868c-0.669,0-1.209,0.54-1.209,1.207c0,0.668,0.54,1.207,1.209,1.207h43.727c0.667,0,1.208-0.539,1.208-1.207
			c0-0.667-0.541-1.207-1.208-1.207h-2.542v-3.627c0-0.667-0.541-1.207-1.209-1.207h-7.008v-4.108h20.783
			c0.667,0,1.208-0.542,1.208-1.21V16.948C232.634,16.282,232.093,15.739,231.426,15.739L231.426,15.739z M195.176,59.722h13.051
			v4.108h-13.051V59.722z M216.441,66.247v2.418h-29.482v-2.418H216.441z M216.441,66.247"/>
		<path d="M192.199,26.362c-0.473-0.471-1.237-0.471-1.709,0l-10.695,10.695c-0.471,0.473-0.471,1.236,0,1.71
			c0.236,0.235,0.545,0.353,0.855,0.353c0.309,0,0.618-0.117,0.854-0.353l10.695-10.694
			C192.671,27.598,192.671,26.833,192.199,26.362L192.199,26.362z M192.199,26.362"/>
		<path d="M178.092,40.47c-0.225-0.224-0.536-0.354-0.854-0.354c-0.317,0-0.63,0.131-0.854,0.354s-0.354,0.534-0.354,0.854
			c0,0.317,0.129,0.629,0.354,0.854s0.537,0.355,0.854,0.355c0.318,0,0.63-0.131,0.854-0.355s0.354-0.536,0.354-0.854
			C178.445,41.006,178.316,40.694,178.092,40.47L178.092,40.47z M178.092,40.47"/>
		<path d="M226.583,69.016c-0.225-0.225-0.537-0.352-0.854-0.352c-0.319,0-0.63,0.127-0.855,0.352
			c-0.225,0.227-0.354,0.537-0.354,0.855s0.129,0.629,0.354,0.854s0.536,0.353,0.855,0.353c0.317,0,0.63-0.127,0.854-0.353
			c0.224-0.226,0.353-0.536,0.353-0.854S226.807,69.243,226.583,69.016L226.583,69.016z M226.583,69.016"/>
		<path d="M199.248,32.051h-6.767c-0.667,0-1.208,0.541-1.208,1.207c0,0.668,0.541,1.209,1.208,1.209h2.175v8.943
			c0,0.666,0.542,1.207,1.209,1.207c0.668,0,1.208-0.541,1.208-1.207v-8.943h2.175c0.668,0,1.209-0.541,1.209-1.209
			C200.457,32.592,199.916,32.051,199.248,32.051L199.248,32.051z M199.248,32.051"/>
		<path d="M211.303,32.113c-0.635-0.212-1.318,0.132-1.529,0.765l-2.236,6.711l-2.238-6.711c-0.211-0.633-0.895-0.977-1.527-0.765
			s-0.976,0.896-0.764,1.528l3.382,10.15c0.165,0.494,0.626,0.826,1.147,0.826c0.52,0,0.98-0.332,1.145-0.826l3.384-10.15
			C212.277,33.008,211.936,32.325,211.303,32.113L211.303,32.113z M211.303,32.113"/>
	</g>
	<g>
		<path d="M297.213,34.926h-2.229c0.019-0.203,0.031-0.41,0.031-0.614c0.002-2.446-1.323-4.7-3.461-5.887
			c-2.138-1.188-4.751-1.126-6.825,0.169c-1.388-1.783-3.635-2.671-5.866-2.316c-2.23,0.356-4.091,1.898-4.854,4.025
			c-2.39,0.344-4.262,2.229-4.588,4.623h-24.449V30.36c0.002-0.621-0.499-1.125-1.119-1.126h-1.726V14.754
			c0-1.559,0.622-3.057,1.724-4.158c1.104-1.104,2.601-1.725,4.16-1.725c1.561,0,3.058,0.621,4.162,1.725
			c1.103,1.102,1.723,2.6,1.723,4.158v1.291c-3.729,0.558-6.488,3.756-6.494,7.523c0,0.621,0.502,1.123,1.123,1.123h12.986
			c0.621,0,1.123-0.502,1.123-1.123c-0.007-3.768-2.768-6.966-6.494-7.523v-1.291c0-4.488-3.639-8.129-8.129-8.129
			c-4.488,0-8.127,3.641-8.127,8.129v14.479h-1.723c-0.619,0-1.123,0.503-1.123,1.124v4.566H235c-0.619,0-1.123,0.5-1.123,1.123
			v4.807c0,0.621,0.504,1.124,1.123,1.124h2.146l1.825,17.74c0.38,3.78,3.374,6.769,7.155,7.147l-1.852,2.408
			c-0.568,0.737-0.041,1.805,0.891,1.805h3.772c0.351,0,0.679-0.16,0.892-0.437l2.87-3.735h26.812l2.869,3.735
			c0.213,0.276,0.542,0.437,0.891,0.437h3.776c0.931,0,1.456-1.067,0.89-1.805l-1.852-2.408c3.783-0.379,6.775-3.367,7.156-7.147
			l1.825-17.74h2.146c0.619,0,1.123-0.503,1.123-1.124v-4.807C298.334,35.426,297.832,34.926,297.213,34.926L297.213,34.926z
			 M260.271,22.447h-10.507c0.53-2.478,2.72-4.249,5.254-4.249C257.551,18.198,259.74,19.969,260.271,22.447L260.271,22.447z
			 M274.742,32.496l0.086,0.005c0.549,0.018,1.03-0.361,1.14-0.9c0.343-1.666,1.715-2.926,3.403-3.127
			c1.691-0.2,3.319,0.703,4.045,2.244c0.326,0.687,1.229,0.857,1.783,0.335c1.302-1.233,3.213-1.573,4.859-0.864
			s2.711,2.33,2.71,4.124c-0.003,0.204-0.019,0.411-0.048,0.614h-21.018C272.031,33.508,273.289,32.506,274.742,32.496
			L274.742,32.496z M239.283,31.481h3.442v3.443h-3.442V31.481z M248.391,68.836h-0.947l1.48-1.928h0.943L248.391,68.836z
			 M283.831,68.836l-1.481-1.928h0.941l1.481,1.928H283.831z M291.014,59.488c-0.296,2.943-2.775,5.182-5.734,5.177h-38.338
			c-2.959,0.005-5.439-2.233-5.735-5.177l-1.802-17.51h53.406L291.014,59.488z M296.097,39.735h-59.974v-2.566h59.967
			L296.097,39.735z M296.097,39.735"/>
		<path d="M253.895,26.882v2.886c0,1.498,2.244,1.498,2.244,0v-2.886C256.139,25.385,253.895,25.385,253.895,26.882L253.895,26.882z
			 M253.895,26.882"/>
		<path d="M249.643,26.428l-1.283,2.884c-0.607,1.37,1.444,2.28,2.053,0.913l1.282-2.887
			C252.303,25.97,250.25,25.059,249.643,26.428L249.643,26.428z M249.643,26.428"/>
		<path d="M258.909,25.857c-0.567,0.251-0.822,0.915-0.57,1.481l1.283,2.887c0.251,0.565,0.915,0.82,1.481,0.57
			c0.566-0.254,0.822-0.916,0.57-1.483l-1.283-2.884C260.14,25.86,259.475,25.604,258.909,25.857L258.909,25.857z M258.909,25.857"
			/>
	</g>
	<g>
		<path fill-rule="evenodd" clip-rule="evenodd" d="M74,21c0.659-1.581,1.588-2.905,3.409-3.224
			c5.443-0.952,8.374,2.449,8.614,6.165c0.316,4.906,0.84,9.799,1.261,14.697c0.187,2.166,1.136,3.075,3.286,3.076
			c3.643,0.004,7.287-0.006,10.93,0.002c4.665,0.012,7.63,3.117,7.436,7.772c-0.094,2.237-1.849,3.976-4.095,4.038
			c-0.839,0.02-1.679,0.003-2.629,0.003c0.092,0.359,0.152,0.649,0.239,0.933c1.318,4.31,2.642,8.617,3.963,12.928
			c0.073,0.237,0.162,0.471,0.219,0.713c0.19,0.826-0.2,1.533-0.965,1.766c-0.703,0.213-1.432-0.146-1.697-0.931
			c-0.429-1.267-0.795-2.552-1.188-3.829c-0.146-0.474-0.296-0.947-0.456-1.457c-0.293-0.013-0.569-0.037-0.846-0.037
			c-5.822-0.002-11.646,0.009-17.469-0.016c-0.662-0.004-0.998,0.156-1.174,0.838c-0.356,1.385-0.806,2.744-1.23,4.109
			c-0.348,1.119-1.044,1.592-1.885,1.303c-0.863-0.297-1.14-1.025-0.793-2.16c1.424-4.668,2.855-9.334,4.282-14
			c0.045-0.146,0.084-0.29,0.135-0.465c-0.675-0.299-1.351-0.537-1.968-0.881c-3.329-1.848-5.142-4.708-5.48-8.479
			c-0.597-6.636-1.153-13.272-1.733-19.907c-0.021-0.24-0.108-0.477-0.165-0.716C74,22.497,74,21.749,74,21z M95.019,50.73
			c3.144,0,6.288,0.007,9.433-0.002c1.169-0.003,1.656-0.489,1.686-1.623c0.07-2.786-1.659-4.573-4.471-4.581
			c-3.799-0.015-7.598,0.003-11.395-0.008c-3.099-0.009-5.346-1.878-5.666-4.938c-0.539-5.137-0.934-10.289-1.41-15.43
			c-0.234-2.521-1.565-3.691-4.121-3.695c-1.949-0.002-2.385,0.539-2.205,2.502c0.617,6.787,1.247,13.572,1.786,20.365
			c0.354,4.477,3.362,7.391,7.864,7.407C89.353,50.741,92.186,50.731,95.019,50.73z M101.453,60.774
			c-0.667-2.189-1.324-4.258-1.917-6.346c-0.19-0.672-0.479-0.924-1.21-0.914c-3.077,0.046-6.154,0.014-9.232,0.023
			c-0.957,0.004-2.15-0.277-2.805,0.184c-0.607,0.428-0.646,1.67-0.921,2.559c-0.458,1.473-0.905,2.949-1.378,4.494
			C89.863,60.774,95.607,60.774,101.453,60.774z"/>
		<path fill-rule="evenodd" clip-rule="evenodd" d="M169.663,23.242c-0.187,1.759-0.393,3.515-0.555,5.274
			c-0.503,5.453-0.982,10.908-1.489,16.359c-0.046,0.49-0.176,0.984-0.343,1.447c-0.265,0.736-0.825,1.104-1.606,0.922
			c-0.774-0.178-1.146-0.725-1.067-1.521c0.529-5.416,1.074-10.829,1.601-16.244c0.228-2.355,0.438-4.711,0.631-7.066
			c0.105-1.303-0.481-1.932-1.765-1.957c-0.374-0.008-0.749-0.015-1.12,0.005c-1.868,0.102-3.283,1.435-3.451,3.298
			c-0.45,4.99-0.902,9.979-1.312,14.973c-0.313,3.813-2.41,5.787-6.247,5.789c-3.674,0-7.347-0.015-11.021,0.004
			c-2.796,0.014-4.565,1.947-4.392,4.753c0.059,0.919,0.55,1.444,1.479,1.446c6.35,0.007,12.701,0.031,19.051-0.047
			c0.981-0.013,1.982-0.463,2.928-0.83c1.032-0.398,1.762-0.277,2.154,0.533c0.368,0.762,0.062,1.479-0.858,1.972
			c-0.3,0.161-0.615,0.294-0.931,0.427c-0.313,0.133-0.632,0.25-1.034,0.406c0.151,0.533,0.293,1.059,0.453,1.582
			c1.308,4.277,2.625,8.555,3.92,12.838c0.122,0.404,0.294,0.953,0.121,1.246c-0.265,0.447-0.764,0.917-1.246,1.033
			c-0.654,0.159-1.173-0.314-1.385-0.983c-0.488-1.54-0.937-3.093-1.458-4.622c-0.091-0.27-0.454-0.635-0.695-0.635
			c-6.192-0.034-12.387-0.027-18.677-0.027c-0.443,1.422-0.884,2.834-1.322,4.246c-0.093,0.298-0.168,0.6-0.269,0.894
			c-0.313,0.913-0.993,1.341-1.757,1.116c-0.826-0.244-1.194-0.985-0.91-1.934c0.668-2.232,1.358-4.461,2.039-6.689
			c0.77-2.521,1.539-5.043,2.354-7.715c-0.633,0-1.178-0.043-1.715,0.008c-3.36,0.319-5.656-2.055-4.949-5.989
			c0.622-3.457,3.338-5.788,6.854-5.823c3.798-0.039,7.596-0.01,11.395-0.014c2.166-0.001,3.12-0.895,3.307-3.052
			c0.438-5.083,0.878-10.167,1.334-15.251c0.279-3.118,2.832-5.565,6.004-5.735c0.863-0.047,1.753-0.033,2.598,0.128
			c1.855,0.353,2.81,1.684,3.353,3.382C169.663,21.872,169.663,22.557,169.663,23.242z M142.207,60.774c5.85,0,11.593,0,17.471,0
			c-0.723-2.347-1.409-4.627-2.147-6.889c-0.059-0.176-0.475-0.336-0.725-0.336c-3.917-0.021-7.833-0.025-11.749,0.01
			c-0.27,0.001-0.697,0.283-0.776,0.529C143.565,56.266,142.912,58.465,142.207,60.774z"/>
		<path fill-rule="evenodd" clip-rule="evenodd" d="M126.746,36.01c0,8.557,0,16.982,0,25.434c0.732,0.093,1.448,0.114,2.127,0.279
			c3.022,0.741,4.051,3.779,3.95,5.951c-0.058,1.248-1.234,2.242-2.577,2.25c-5.605,0.026-11.209,0.026-16.813,0.002
			c-1.389-0.008-2.594-1.035-2.605-2.322c-0.025-2.574,1.182-5.384,4.384-5.994c0.538-0.102,1.099-0.082,1.692-0.122
			c0-8.479,0-16.905,0-25.478c-0.376,0-0.737,0-1.099,0c-5.168,0-10.339-0.108-15.503,0.042c-2.896,0.082-4.894-2.364-3.372-5.392
			c0.957-1.904,2.439-3.168,4.547-3.496c1.28-0.196,2.604-0.165,3.907-0.137c0.799,0.018,1.33,0.698,1.299,1.436
			c-0.03,0.737-0.596,1.295-1.412,1.322c-0.871,0.031-1.745-0.021-2.614,0.024c-1.532,0.079-2.659,0.799-3.262,2.239
			c-0.371,0.887-0.206,1.129,0.729,1.157c0.187,0.005,0.373,0,0.56,0c14.104,0,28.208,0.002,42.312,0
			c0.25,0,0.498-0.002,0.747-0.002c0.658-0.003,0.789-0.335,0.614-0.919c-0.394-1.318-1.615-2.31-3.104-2.461
			c-0.37-0.039-0.746-0.027-1.119-0.027c-9.154-0.002-18.307-0.002-27.46-0.002c-0.312,0-0.626,0.02-0.934-0.014
			c-0.758-0.08-1.2-0.545-1.261-1.273c-0.063-0.738,0.344-1.245,1.061-1.443c0.264-0.074,0.555-0.069,0.833-0.069
			c9.433-0.001,18.867-0.007,28.301,0.002c2.991,0.002,5.358,1.62,6.29,4.243c0.932,2.626-0.528,4.756-3.305,4.764
			c-5.262,0.018-10.523,0.006-15.785,0.006C127.512,36.01,127.149,36.01,126.746,36.01z M123.838,61.503c0-8.53,0-16.97,0-25.425
			c-1.385,0-2.703,0-4.02,0c0,8.511,0,16.952,0,25.425C121.178,61.503,122.474,61.503,123.838,61.503z M113.689,67.09
			c5.461,0,10.861,0,16.269,0c-0.313-2.152-0.978-2.748-3.033-2.75c-3.358,0-6.719,0-10.078,0
			C114.668,64.34,114.062,64.86,113.689,67.09z"/>
	</g>
</g>
<g id="Layer_2">
</g>
</svg>
