<?xml version="1.0" encoding="utf-8"?>
<!-- Generator: Adobe Illustrator 16.0.0, SVG Export Plug-In . SVG Version: 6.00 Build 0)  -->
<!DOCTYPE svg PUBLIC "-//W3C//DTD SVG 1.1//EN" "http://www.w3.org/Graphics/SVG/1.1/DTD/svg11.dtd">
<svg version="1.1" id="Layer_1" xmlns="http://www.w3.org/2000/svg" xmlns:xlink="http://www.w3.org/1999/xlink" x="0px" y="0px"
	 width="304.358px" height="71.193px" viewBox="386.902 2.285 304.358 71.193"
	 enable-background="new 386.902 2.285 304.358 71.193" xml:space="preserve">
<g id="Layer_2">
</g>
<g>
	<path d="M502.399,29.868h11.567c0.697,0,1.264-0.526,1.264-1.172v-9.919c0-0.646-0.566-1.172-1.264-1.172h-11.567
		c-0.697,0-1.265,0.526-1.265,1.172v9.919C501.135,29.342,501.702,29.868,502.399,29.868z M503.663,22.565v-2.616h3.258v2.616
		H503.663z M503.663,27.527v-2.619h3.258v2.619H503.663z M509.443,22.565v-2.616h3.259v2.616H509.443z M509.443,27.527v-2.619h3.259
		v2.619H509.443z"/>
	<path d="M538.025,64.534h-5.081l-2.279-5.196h3.793c0.697,0,1.265-0.525,1.265-1.172s-0.567-1.173-1.265-1.173h-4.818l-2.286-5.199
		h3.938c0.697,0,1.264-0.524,1.264-1.169c0-0.646-0.566-1.172-1.264-1.172h-4.963l-2.285-5.2h4.491c0.697,0,1.264-0.525,1.264-1.172
		c0-0.645-0.566-1.169-1.264-1.169h-5.399c-0.039,0-0.078,0.002-0.117,0.005l-2.339-5.33h5.094c0.697,0,1.264-0.526,1.264-1.172
		c0-0.646-0.566-1.172-1.264-1.172h-5.334V14.537h1.533c0.543,0,1.023-0.318,1.193-0.787c0.187-0.482,0.011-1.014-0.437-1.323
		l-13.791-9.544c-0.429-0.298-1.078-0.299-1.515,0l-13.794,9.546c-0.44,0.309-0.613,0.84-0.431,1.319
		c0.174,0.473,0.651,0.79,1.189,0.79h1.79v19.821c-1.962,0.327-5.714,1.486-10.156,5.525c-2.557,2.322-4.415,5.904-6.383,9.696
		c-2.831,5.453-6.04,11.633-12.031,15.521c-3.826,2.488-8.562,3.011-11.861,3.011l-0.462-0.003c-1.183,0-2.3,0.416-3.146,1.174
		c-0.861,0.773-1.336,1.807-1.336,2.908c0,0.604,0.49,1.104,1.136,1.164c0.011,0.002,1.23,0.124,3.242,0.124
		c3.789,0,10.882-0.479,15.818-3.687c0.029-0.019,0.058-0.037,0.086-0.055v2.563c0,0.646,0.567,1.172,1.266,1.172
		c0.697,0,1.264-0.525,1.264-1.172v-4.45c4.252-3.58,7.078-8.192,9.373-12.374v16.824c0,0.646,0.566,1.172,1.264,1.172
		s1.264-0.525,1.264-1.172V51.045c0-0.079-0.008-0.155-0.022-0.227c1.62-2.982,3.035-5.294,4.65-6.878
		c2.283-2.247,4.615-3.054,6.045-3.531l-0.052,31.781c0,0.733,0.379,1.172,1.014,1.172h4.222c0.697,0,1.265-0.525,1.265-1.172
		V45.584c0-3.403,2.467-5.873,5.866-5.873c2.676,0,5.042,1.454,6.028,3.704l12.825,29.214c0.188,0.438,0.656,0.733,1.167,0.733
		h6.418c0.414,0,0.803-0.188,1.042-0.504c0.244-0.325,0.293-0.74,0.13-1.11l-2.137-4.872h4.05c0.697,0,1.264-0.524,1.264-1.17
		C539.289,65.06,538.722,64.534,538.025,64.534z M495.885,36.762v0.86c-1.555,0.447-4.45,1.634-7.579,4.708
		c-2.355,2.318-4.192,5.77-6.138,9.428c-3.028,5.681-6.46,12.118-12.615,16.114c-4.354,2.832-10.938,3.255-14.475,3.255
		c-0.494,0-0.939-0.009-1.324-0.02c0.044-0.05,0.093-0.098,0.144-0.144c0.364-0.324,0.853-0.501,1.41-0.512l0.397,0.002
		c3.683,0,8.989-0.596,13.356-3.434c6.519-4.233,9.881-10.705,12.853-16.425l0.042-0.081c1.857-3.568,3.61-6.938,5.834-8.957
		C491.447,38.234,494.335,37.128,495.885,36.762z M518.171,12.193h-19.977l9.985-6.911L518.171,12.193z M517.955,36.588
		l15.112,34.433h-3.69l-12.504-28.49c-1.377-3.137-4.661-5.163-8.366-5.163c-5.24,0-8.371,4.447-8.371,8.747v24.767l-1.723,0.121
		V36.588H517.955z M517.916,14.537v19.704h-19.467V14.537H517.916z"/>
</g>
<path d="M690.06,70.58h-2.102l-0.029-0.218l-7.262-55.017c-0.373-2.023-2.148-3.5-4.218-3.5h-53.586
	c-2.069,0-3.845,1.477-4.22,3.513l-7.745,55.222h-2.102c-0.661,0-1.198,0.538-1.198,1.2c0,0.661,0.537,1.198,1.198,1.198h6.183
	c0.662,0,1.2-0.537,1.2-1.198c0-0.662-0.538-1.2-1.2-1.2h-1.638l0.039-0.284l7.62-54.492c0.165-0.908,0.947-1.56,1.862-1.56h0.885
	l-0.021,0.347c0,1.841,1.174,3.475,2.921,4.065l0.17,0.058v36.683l-0.129,0.071c-0.875,0.485-1.418,1.405-1.418,2.401v3.092
	c0,1.513,1.231,2.743,2.746,2.743h15.455c1.514,0,2.745-1.23,2.745-2.743v-3.092c0-0.996-0.543-1.916-1.416-2.401l-0.129-0.071
	V18.714l0.17-0.058c1.746-0.59,2.92-2.224,2.92-4.065v-0.25l0.246-0.097h3.56l-0.021,0.347c0,1.84,1.174,3.474,2.922,4.065
	l0.17,0.058v36.683l-0.129,0.071c-0.874,0.485-1.417,1.406-1.417,2.401v3.092c0,1.513,1.231,2.743,2.745,2.743h15.456
	c1.514,0,2.745-1.23,2.745-2.743v-3.092c0-0.996-0.543-1.916-1.417-2.401l-0.129-0.071V18.714l0.17-0.058
	c1.747-0.591,2.921-2.224,2.921-4.065c0-0.024-0.002-0.046-0.005-0.07l-0.024-0.272l0.894-0.004c0.915,0,1.697,0.652,1.86,1.55
	l7.205,54.786h-1.636c-0.661,0-1.199,0.538-1.199,1.2c0,0.661,0.538,1.198,1.199,1.198h6.181c0.662,0,1.2-0.537,1.2-1.198
	C691.26,71.118,690.722,70.58,690.06,70.58z M632.302,14.334l0.252-0.089h6.659l-0.024,0.272c-0.003,0.027-0.005,0.05-0.005,0.074
	c0,1.841,1.174,3.474,2.922,4.065l0.17,0.058v25.591h-13.06V18.714l0.17-0.058c1.749-0.591,2.924-2.224,2.924-4.065L632.302,14.334z
	 M629.216,48.942v-2.238h13.06v2.238H629.216z M642.275,51.34v3.784h-13.06V51.34H642.275z M626.126,14.591
	c0-0.024-0.002-0.046-0.005-0.07l-0.024-0.272l0.273-0.004h3.553l-0.008,0.257l-0.25,0.089h0.244c0,1.043-0.848,1.892-1.891,1.892
	C626.974,16.483,626.126,15.635,626.126,14.591z M643.82,60.961c0,0.191-0.155,0.347-0.347,0.347h-15.455
	c-0.19,0-0.346-0.155-0.346-0.347v-3.092c0-0.191,0.155-0.347,0.346-0.347h15.455c0.191,0,0.347,0.155,0.347,0.347V60.961z
	 M645.372,14.517c-0.003,0.028-0.005,0.05-0.005,0.074c0,1.043-0.85,1.892-1.894,1.892c-1.043,0-1.892-0.849-1.892-1.892
	l-0.021-0.347h3.835L645.372,14.517z M660.13,14.591v-0.25l0.246-0.097h6.658l-0.024,0.272c-0.003,0.027-0.005,0.05-0.005,0.074
	c0,1.84,1.174,3.474,2.922,4.065l0.17,0.058v25.591h-13.059V18.714l0.17-0.058C658.956,18.066,660.13,16.432,660.13,14.591z
	 M657.038,48.942v-2.238h13.059v2.238H657.038z M670.096,51.34v3.784h-13.059V51.34H670.096z M653.947,14.591l-0.021-0.347h3.834
	l-0.024,0.272c-0.003,0.028-0.005,0.05-0.005,0.074c0,1.043-0.849,1.892-1.892,1.892C654.796,16.483,653.947,15.635,653.947,14.591z
	 M671.642,60.961c0,0.191-0.155,0.347-0.347,0.347H655.84c-0.191,0-0.347-0.155-0.347-0.347v-3.092c0-0.191,0.155-0.347,0.347-0.347
	h15.456c0.191,0,0.347,0.155,0.347,0.347V60.961z M673.188,14.591c0,1.043-0.849,1.892-1.893,1.892s-1.893-0.849-1.893-1.892
	l-0.019-0.342l0.265-0.004h3.56L673.188,14.591z"/>
<g>
	<path d="M603.758,48.211h-1.828c-0.473-0.853-1.06-1.632-1.745-2.317c-1.194-1.194-2.669-2.083-4.279-2.583
		c0.412-0.854,0.629-1.795,0.629-2.738c0-3.469-2.822-6.292-6.291-6.292c-2.721,0-5.077,1.687-5.948,4.226
		c-1.361-0.543-2.805-0.8-4.266-0.732c0.142-0.851-0.073-1.735-0.6-2.421c-0.165-0.217-0.196-0.533-0.081-0.823l2.486-6.27
		c0.29-0.726,0.277-1.522-0.034-2.242c-0.31-0.72-0.881-1.275-1.609-1.563c-0.724-0.286-1.526-0.274-2.241,0.035
		c-0.72,0.31-1.274,0.881-1.562,1.609l-2.487,6.27c-0.116,0.291-0.354,0.499-0.623,0.543c-0.907,0.151-1.705,0.698-2.177,1.482
		c-1.611-0.667-3.377-0.931-5.147-0.731l-0.361-6.321c-0.032-0.562-0.305-1.083-0.748-1.429c-0.436-0.344-1.014-0.487-1.566-0.385
		l-3.708,0.689V11.408c0-1.604-1.305-2.909-2.909-2.909s-2.909,1.305-2.909,2.909v15.89l-3.882,0.722
		c-0.552,0.103-1.034,0.438-1.325,0.923c-0.288,0.485-0.354,1.069-0.182,1.601l3.205,9.992c-1.986,0.421-3.785,1.394-5.216,2.824
		c-1.345,1.344-2.292,3.018-2.747,4.851h-1.26c-1.081,0-1.96,0.879-1.96,1.96v5.102c0,1.08,0.879,1.959,1.96,1.959h0.732v13.782
		c0,1.359,1.105,2.465,2.465,2.465h14.054c0.662,0,1.2-0.538,1.2-1.199c0-0.662-0.538-1.2-1.2-1.2h-14.054
		c-0.035,0-0.066-0.031-0.066-0.065v-8.358h55.148v8.358c0,0.035-0.031,0.065-0.066,0.065h-36.591c-0.662,0-1.2,0.538-1.2,1.2
		c0,0.661,0.538,1.199,1.2,1.199h36.591c1.359,0,2.466-1.105,2.466-2.465V57.232h0.733c1.08,0,1.959-0.879,1.959-1.959v-5.102
		C605.717,49.09,604.838,48.211,603.758,48.211z M592.144,56.032c0,0.661,0.538,1.199,1.199,1.199h7.281v3.024h-55.148v-3.024
		h43.496c0.662,0,1.2-0.538,1.2-1.199s-0.538-1.198-1.2-1.198h-46.188v-4.223h12.887c0.661,0,1.198-0.538,1.198-1.2
		s-0.537-1.2-1.198-1.2h-9.569c0.392-1.192,1.046-2.253,1.946-3.154c1.578-1.577,3.692-2.437,5.928-2.35
		c2.616,0.068,5.056-1.155,6.536-3.272c1.505-2.152,3.969-3.437,6.591-3.437c1.048,0,2.105,0.211,3.072,0.611l-0.753,1.9
		c-0.635,0.116-1.252,0.31-1.838,0.575c-0.601,0.272-0.869,0.983-0.599,1.585c0.264,0.585,0.996,0.867,1.588,0.601
		c0.727-0.329,1.505-0.496,2.313-0.496c2.796,0,5.193,2.087,5.575,4.854c0.082,0.59,0.592,1.035,1.187,1.035
		c0.053,0,0.107-0.004,0.165-0.01c0.654-0.093,1.114-0.698,1.026-1.354c-0.12-0.852-0.372-1.671-0.752-2.437l1.026-2.588
		c0.437-0.072,0.881-0.109,1.321-0.109c2.623,0,5.087,1.284,6.591,3.437c0.954,1.365,2.668,2.073,4.311,1.771
		c0.483-0.089,0.976-0.135,1.466-0.135c2.148,0,4.166,0.836,5.683,2.353c0.197,0.198,0.385,0.405,0.559,0.62h-39.004
		c-0.661,0-1.198,0.538-1.198,1.2s0.537,1.2,1.198,1.2h43.276v4.223h-9.974C592.682,54.834,592.144,55.371,592.144,56.032z
		 M558.547,38.06c-0.986,1.41-2.607,2.253-4.335,2.253l-0.197-0.003l-3.214-10.021l2.962-0.552c0.125,1.489,1.377,2.663,2.898,2.663
		c1.604,0,2.909-1.305,2.909-2.909v-0.833l3.655-0.679l0.356,6.234C561.533,34.948,559.795,36.275,558.547,38.06z M579.308,26.688
		c0.13,0.051,0.233,0.151,0.289,0.283c0.057,0.131,0.06,0.274,0.007,0.405l-2.486,6.271c-0.424,1.069-0.268,2.281,0.405,3.161
		c0.159,0.208,0.196,0.478,0.101,0.72l-1.214,3.059c-1.212-1.148-2.747-1.894-4.386-2.131l1.079-2.722
		c0.096-0.241,0.307-0.411,0.565-0.453c1.095-0.181,2.039-0.957,2.463-2.025l2.486-6.271c0.052-0.131,0.152-0.235,0.282-0.292
		C579.03,26.637,579.173,26.635,579.308,26.688z M590.243,36.681c2.146,0,3.891,1.746,3.891,3.891c0,0.832-0.256,1.618-0.741,2.284
		c-0.83-0.046-1.674,0.006-2.488,0.156c-0.755,0.141-1.478-0.169-1.91-0.786c-0.697-0.995-1.551-1.852-2.539-2.55
		C586.859,37.932,588.427,36.681,590.243,36.681z M557.172,29.49c0,0.281-0.229,0.509-0.511,0.509s-0.51-0.229-0.51-0.509V11.408
		c0-0.281,0.229-0.509,0.51-0.509s0.511,0.229,0.511,0.509V29.49z"/>
	<path d="M585.164,45.771c0.661,0,1.199-0.538,1.199-1.199c0-0.662-0.538-1.2-1.213-1.2c-0.658,0-1.193,0.538-1.193,1.2
		C583.957,45.233,584.498,45.771,585.164,45.771z"/>
	<path d="M564.796,40.957c0.661,0,1.199-0.538,1.199-1.2c0-0.661-0.538-1.199-1.212-1.199c-0.657,0-1.192,0.538-1.192,1.199
		C563.591,40.419,564.132,40.957,564.796,40.957z"/>
	<path d="M562.187,44.013c0.661,0,1.199-0.538,1.199-1.2c0-0.661-0.538-1.198-1.212-1.198c-0.657,0-1.192,0.537-1.192,1.198
		C560.982,43.475,561.523,44.013,562.187,44.013z"/>
</g>
<g>
	<g>
		<path d="M441.199,40.236c-0.637,0-1.151,0.515-1.151,1.15v12.436c0,0.636-0.516,1.151-1.151,1.151h-11.51V33.39
			c0-1.906-1.547-3.453-3.454-3.453h-11.51c-1.908,0-3.453,1.546-3.453,3.453v21.583h-11.51c-0.637,0-1.151-0.516-1.151-1.151
			V41.386c0-0.636-0.515-1.15-1.15-1.15c-0.637,0-1.151,0.515-1.151,1.15v12.436c0,1.907,1.547,3.454,3.453,3.454h41.437
			c1.907,0,3.453-1.547,3.453-3.454V41.386C442.349,40.75,441.834,40.236,441.199,40.236L441.199,40.236z M425.084,54.973h-13.813
			V33.39c0-0.636,0.516-1.151,1.151-1.151h11.51c0.636,0,1.151,0.515,1.151,1.151V54.973z M425.084,54.973"/>
		<path d="M448.454,31.935L420.63,3.295c-1.357-1.347-3.547-1.347-4.904,0l-27.82,28.64c-0.997,1.027-1.28,2.555-0.716,3.872
			c0.521,1.289,1.776,2.131,3.168,2.127h0.393c0.823-0.009,1.615-0.313,2.233-0.858c0.083-0.053,0.158-0.114,0.229-0.182
			l24.966-25.716l24.982,25.729c0.066,0.063,0.139,0.12,0.215,0.172c0.617,0.543,1.408,0.846,2.229,0.854h0.393
			c1.394,0.005,2.65-0.837,3.172-2.127C449.733,34.49,449.45,32.963,448.454,31.935L448.454,31.935z M447.051,34.912
			c-0.171,0.432-0.588,0.716-1.053,0.719h-0.393c-0.304,0-0.596-0.125-0.806-0.345c-0.008-0.009-0.02-0.012-0.028-0.02
			c-0.008-0.008-0.016-0.021-0.026-0.029L419.003,8.724l-0.014-0.009l-0.005-0.018c-0.056-0.044-0.115-0.083-0.18-0.114
			c-0.059-0.048-0.124-0.089-0.191-0.124c-0.071-0.022-0.145-0.038-0.218-0.046c-0.139-0.05-0.29-0.05-0.428,0
			c-0.075,0.008-0.147,0.024-0.218,0.046c-0.068,0.035-0.133,0.076-0.192,0.124c-0.063,0.032-0.123,0.07-0.179,0.114l-0.01,0.014
			l-0.013,0.01l-25.748,26.517c-0.01,0.008-0.015,0.02-0.024,0.027c-0.011,0.008-0.022,0.012-0.03,0.021
			c-0.21,0.22-0.502,0.345-0.806,0.345h-0.391c-0.465-0.003-0.88-0.288-1.053-0.719c-0.204-0.465-0.105-1.008,0.248-1.374h-0.002
			l27.822-28.64c0.212-0.213,0.5-0.334,0.802-0.334c0.301,0,0.59,0.121,0.802,0.334l27.825,28.64
			C447.157,33.904,447.255,34.447,447.051,34.912L447.051,34.912z M447.051,34.912"/>
		<path d="M414.725,43.175h-1.151c-0.636,0-1.151,0.515-1.151,1.151c0,0.635,0.516,1.149,1.151,1.149h1.151
			c0.635,0,1.15-0.515,1.15-1.149C415.876,43.69,415.36,43.175,414.725,43.175L414.725,43.175z M414.725,43.175"/>
	</g>
	<rect x="404.089" y="57.276" width="2.075" height="13.896"/>
	<rect x="409.171" y="57.276" width="2.074" height="13.896"/>
	<rect x="397.78" y="71.172" width="16.369" height="2.075"/>
	<rect x="398.375" y="69.735" transform="matrix(0.7073 -0.7069 0.7069 0.7073 66.7203 303.4761)" width="2.875" height="2.874"/>
	<rect x="430.278" y="57.276" width="2.074" height="13.896"/>
	<rect x="425.197" y="57.276" width="2.074" height="13.896"/>
	<rect x="422.292" y="71.172" width="16.37" height="2.075"/>
	
		<rect x="435.193" y="69.735" transform="matrix(-0.7071 -0.7071 0.7071 -0.7071 695.0471 430.2422)" width="2.874" height="2.874"/>
</g>
</svg>
