<?xml version="1.0" encoding="utf-8"?>
<!-- Generator: Adobe Illustrator 16.0.0, SVG Export Plug-In . SVG Version: 6.00 Build 0)  -->
<!DOCTYPE svg PUBLIC "-//W3C//DTD SVG 1.1//EN" "http://www.w3.org/Graphics/SVG/1.1/DTD/svg11.dtd">
<svg version="1.1" xmlns="http://www.w3.org/2000/svg" xmlns:xlink="http://www.w3.org/1999/xlink" x="0px" y="0px"
	 width="33.924px" height="67.917px" viewBox="0 0 33.924 67.917" enable-background="new 0 0 33.924 67.917" xml:space="preserve">
<g id="Layer_1">
	<g>
		<path fill-rule="evenodd" clip-rule="evenodd" fill="#FFFFFF" d="M33.914,16.954c0,2.502,0.004,5.003,0,7.504
			c-0.006,4.244-2.762,7.907-6.84,9.092c-0.852,0.248-1.724,0.364-2.609,0.364c-4.984,0.004-9.969,0.003-14.953,0.003
			c-4.571,0-8.414-3.125-9.322-7.606c-0.125-0.622-0.178-1.268-0.18-1.902C-0.004,19.444,0,14.478,0.004,9.513
			c0.004-4.478,2.969-8.235,7.325-9.26C7.98,0.101,8.666,0.02,9.335,0.017c5.021-0.02,10.044-0.02,15.065-0.01
			c4.398,0.008,8.093,2.832,9.191,7.053c0.201,0.772,0.297,1.591,0.311,2.391c0.038,2.5,0.014,5.002,0.014,7.504
			C33.916,16.954,33.915,16.954,33.914,16.954z M26.364,16.951c0.038-5.142-4.198-9.347-9.294-9.404
			c-5.223-0.06-9.527,4.218-9.525,9.415c0.003,5.153,4.209,9.35,9.296,9.412C22.072,26.438,26.416,22.151,26.364,16.951z
			 M28.259,3.784c-1.05,0.004-1.901,0.857-1.891,1.891c0.012,1.02,0.876,1.878,1.89,1.876c1.066-0.001,1.883-0.854,1.879-1.958
			C30.133,4.612,29.268,3.781,28.259,3.784z"/>
		<path fill-rule="evenodd" clip-rule="evenodd" fill="#FFFFFF" d="M11.303,16.933c0.008-3.086,2.576-5.643,5.652-5.627
			c3.135,0.016,5.688,2.544,5.658,5.67c-0.029,3.158-2.503,5.605-5.631,5.642C13.855,22.649,11.294,20.061,11.303,16.933z"/>
	</g>
	<g>
		<path fill-rule="evenodd" clip-rule="evenodd" fill="#C6C7C8" d="M33.914,50.954c0,2.502,0.004,5.003,0,7.504
			c-0.006,4.244-2.762,7.907-6.84,9.092c-0.852,0.248-1.724,0.364-2.609,0.364c-4.984,0.004-9.969,0.003-14.953,0.003
			c-4.571,0-8.414-3.125-9.322-7.606c-0.125-0.622-0.178-1.268-0.18-1.902C-0.004,53.444,0,48.478,0.004,43.513
			c0.004-4.478,2.969-8.235,7.325-9.26c0.651-0.152,1.337-0.233,2.006-0.236c5.021-0.02,10.044-0.02,15.065-0.01
			c4.398,0.008,8.093,2.832,9.191,7.053c0.201,0.772,0.297,1.591,0.311,2.391c0.038,2.5,0.014,5.002,0.014,7.504
			C33.916,50.954,33.915,50.954,33.914,50.954z M26.364,50.951c0.038-5.142-4.198-9.347-9.294-9.404
			c-5.223-0.06-9.527,4.218-9.525,9.415c0.003,5.153,4.209,9.35,9.296,9.412C22.072,60.438,26.416,56.151,26.364,50.951z
			 M28.259,37.784c-1.05,0.004-1.901,0.857-1.891,1.891c0.012,1.02,0.876,1.878,1.89,1.876c1.066-0.001,1.883-0.854,1.879-1.958
			C30.133,38.612,29.268,37.781,28.259,37.784z"/>
		<path fill-rule="evenodd" clip-rule="evenodd" fill="#C6C7C8" d="M11.303,50.933c0.008-3.086,2.576-5.643,5.652-5.627
			c3.135,0.016,5.688,2.544,5.658,5.67c-0.029,3.158-2.503,5.605-5.631,5.642C13.855,56.649,11.294,54.061,11.303,50.933z"/>
	</g>
</g>
<g id="Layer_2">
</g>
</svg>
