<?xml version="1.0" encoding="utf-8"?>
<!-- Generator: Adobe Illustrator 16.0.0, SVG Export Plug-In . SVG Version: 6.00 Build 0)  -->
<!DOCTYPE svg PUBLIC "-//W3C//DTD SVG 1.1//EN" "http://www.w3.org/Graphics/SVG/1.1/DTD/svg11.dtd">
<svg version="1.1" xmlns="http://www.w3.org/2000/svg" xmlns:xlink="http://www.w3.org/1999/xlink" x="0px" y="0px"
	 width="39.984px" height="78.917px" viewBox="0 0 39.984 78.917" enable-background="new 0 0 39.984 78.917" xml:space="preserve">
<g id="Layer_1">
	<g id="surface1_2_">
		<path fill="#3F51B5" d="M0,0h39.984v25H0V0z"/>
		<path fill="#FFFFFF" d="M0,3.763l18.909,11.356l2.844-4.569L4.188,0H0V3.763z"/>
		<path fill="#FFFFFF" d="M39.984,0h-3.28L19.139,10.547l2.841,4.572L39.984,4.307V0z"/>
		<path fill="#FFFFFF" d="M21.979,9.169l-2.841,4.573L37.887,25h2.098v-5.019L21.979,9.169z"/>
		<path fill="#FFFFFF" d="M0,20.529V25h3.007l18.746-11.258l-2.84-4.573L0,20.529z"/>
		<path fill="#FFFFFF" d="M0,8.929h39.984v7.143H0V8.929z"/>
		<path fill="#FFFFFF" d="M16.357,0h7.271v25h-7.271V0z"/>
		<path fill="#E53935" d="M13.829,8.929L0,0.624v2.093l10.344,6.211H13.829z"/>
		<path fill="#E53935" d="M38.448,0L23.577,8.929h3.487l12.92-7.757V0H38.448z"/>
		<path fill="#E53935" d="M28.245,16.071l11.739,7.048v-2.092l-8.253-4.956H28.245z"/>
		<path fill="#E53935" d="M12.648,16.071L0,23.667V25h1.263l14.87-8.929H12.648z"/>
		<path fill="#E53935" d="M0,10.714h39.984v3.572H0V10.714z"/>
		<path fill="#E53935" d="M18.174,0h3.637v25h-3.637V0z"/>
	</g>
	<g>
		<rect y="25" fill="#1A171B" width="39.984" height="8.943"/>
		<rect y="33.943" fill="#E2001A" width="39.984" height="9.016"/>
		<rect y="42.958" fill="#FFDD00" width="39.984" height="9"/>
	</g>
	<rect y="60.901" fill="#0C3183" width="39.984" height="9.016"/>
	<rect y="69.917" fill="#E2001A" width="39.984" height="9"/>
	<rect y="51.958" fill="#FFFFFF" width="39.984" height="8.943"/>
</g>
<g id="Layer_2">
</g>
</svg>
