<?xml version="1.0" encoding="utf-8"?>
<!-- Generator: Adobe Illustrator 16.0.0, SVG Export Plug-In . SVG Version: 6.00 Build 0)  -->
<!DOCTYPE svg PUBLIC "-//W3C//DTD SVG 1.1//EN" "http://www.w3.org/Graphics/SVG/1.1/DTD/svg11.dtd">
<svg version="1.1" xmlns="http://www.w3.org/2000/svg" xmlns:xlink="http://www.w3.org/1999/xlink" x="0px" y="0px"
	 width="75.938px" height="94.069px" viewBox="0 0 75.938 94.069" enable-background="new 0 0 75.938 94.069" xml:space="preserve">
<g id="Layer_1">
	<g>
		<linearGradient id="SVGID_1_" gradientUnits="userSpaceOnUse" x1="13.6357" y1="3.7607" x2="64.8929" y2="73.3786">
			<stop  offset="0" style="stop-color:#97BF0D"/>
			<stop  offset="1" style="stop-color:#00632E"/>
		</linearGradient>
		<path fill-rule="evenodd" clip-rule="evenodd" fill="url(#SVGID_1_)" d="M37.929,94.069c-0.62-0.994-1.19-1.889-1.741-2.799
			c-3.354-5.527-7.295-10.611-11.768-15.264c-4.32-4.495-8.748-8.886-13.148-13.304c-5.487-5.51-9.216-11.975-10.666-19.662
			c-1.199-6.357-0.621-12.582,1.762-18.59c3.625-9.135,9.857-15.953,18.604-20.444c4.172-2.143,8.615-3.444,13.286-3.843
			c10.848-0.93,20.475,2.086,28.69,9.262c5.951,5.197,10.107,11.598,11.983,19.328c2.198,9.06,0.749,17.613-3.882,25.66
			c-1.955,3.397-4.479,6.334-7.254,9.084c-5.105,5.061-10.289,10.045-15.037,15.454c-3.934,4.482-7.338,9.34-10.402,14.445
			C38.234,93.599,38.104,93.794,37.929,94.069z M54.569,38.531c-0.005-9.194-7.442-16.625-16.626-16.613
			c-9.217,0.012-16.643,7.416-16.643,16.594c0,9.203,7.449,16.66,16.65,16.664C47.1,55.18,54.576,47.691,54.569,38.531z"/>
		<path fill-rule="evenodd" clip-rule="evenodd" fill="#FFFFFF" d="M65.407,36.584c0.011,15.13-12.337,27.501-27.444,27.493
			c-15.196-0.008-27.5-12.323-27.5-27.524C10.462,21.396,22.727,9.168,37.949,9.148C53.115,9.129,65.397,21.401,65.407,36.584z"/>
		<linearGradient id="SVGID_2_" gradientUnits="userSpaceOnUse" x1="27.3447" y1="0.918" x2="50.4389" y2="82.2973">
			<stop  offset="0" style="stop-color:#97BF0D"/>
			<stop  offset="1" style="stop-color:#00632E"/>
		</linearGradient>
		<path fill-rule="evenodd" clip-rule="evenodd" fill="url(#SVGID_2_)" d="M35.129,20.124c-6.563,5.694-13.124,11.394-19.684,17.091
			c-1.14,0.99-1.148,1.47-0.054,2.437c0.603,0.532,1.265,1.011,1.804,1.601c0.617,0.676,1.305,1.375,1.645,2.195
			c0.531,1.282,0.78,2.68,1.179,4.021c0.261,0.874,0.57,1.733,0.872,2.642c1.564-0.997,1.596-0.977,1.902,0.657
			c0.04,0.215,0.31,0.376,0.395,0.593c0.135,0.35,0.297,0.737,0.253,1.084c-0.018,0.141-0.689,0.387-0.821,0.283
			c-0.271-0.219-0.381-0.639-0.558-0.975c-0.203-0.385-0.407-0.771-0.611-1.156c-0.128,0.068-0.254,0.137-0.381,0.205
			c0.505,1.646,0.991,3.3,1.52,4.94c1.157,3.587,2.308,7.178,3.521,10.747c0.064,0.189,0.094,0.348,0.108,0.494
			c0.001,0,0.007,0.006,0.007,0.006h2.905l0.429-0.052c-0.449-0.091-0.662-0.388-0.738-1.008c-0.188-1.554-0.443-3.101-0.659-4.65
			c-0.094-0.679,0.117-1.152,0.88-1.268c2.338-0.354,4.664-0.974,7.006-1.032c3.627-0.09,7.262,0.205,10.896,0.322
			c0.944,0.031,1.419,0.401,1.257,1.416c-0.252,1.588-0.482,3.179-0.697,4.771c-0.019,0.135-0.058,0.235-0.092,0.344h0.016
			l2.967,0.578l0.01-0.033c0.037-0.328,0.151-0.77,0.324-1.406c0.034-0.125,0.086-0.242,0.113-0.365
			c0.402-1.841,0.801-3.682,1.146-5.266c-0.685-0.458-1.16-0.721-1.547-1.078c-0.08-0.074,0.128-0.705,0.268-0.73
			c0.497-0.094,1.023-0.037,1.686-0.037c0.168-0.492,0.203-0.844-0.715-0.807c-0.261,0.011-0.549-0.627-0.824-0.967
			c0.401-0.178,0.789-0.412,1.209-0.506c0.169-0.039,0.406,0.228,0.613,0.355c0.107-0.088,0.216-0.176,0.324-0.264
			c-0.201-0.281-0.387-0.571-0.605-0.836c-0.285-0.344-0.596-0.666-0.895-0.996c0.406-0.181,0.803-0.393,1.224-0.524
			c0.151-0.048,0.362,0.103,0.546,0.161c0.373-0.726,0.37-1.088-0.523-1.143c-0.288-0.017-0.544-0.553-0.815-0.853
			c0.39-0.207,0.764-0.466,1.177-0.592c0.163-0.05,0.416,0.194,0.763,0.376c0.133-0.49,0.233-0.865,0.28-1.039
			c-0.67-0.218-1.216-0.343-1.697-0.593c-0.096-0.051,0.022-0.835,0.097-0.845c0.583-0.074,1.181-0.041,1.921-0.041
			c0.18-0.732,0.397-1.584,0.602-2.441c0.204-0.865,0.367-1.742,0.604-2.6c0.122-0.436,0.251-0.988,0.572-1.23
			c1.28-0.965,2.579-1.933,3.983-2.695c1.348-0.735,1.525-1.358,0.305-2.307c-6.624-5.148-13.256-10.285-19.887-15.424
			c-0.771-0.598-1.573-1.156-2.313-1.789c-1.309-1.119-1.267-1.98,0.01-3.053c0.407-0.342,0.771-0.794,1.008-1.27
			c0.516-1.037,0.936-2.123,1.425-3.261c-1.149-1.481-2.147-1.413-2.963,0.339c-0.655,1.406-0.614,1.346-1.919,0.466
			c-0.451-0.302-1.262-0.452-1.715-0.247c-0.357,0.16-0.46,0.965-0.598,1.504c-0.088,0.342,0.005,0.727-0.056,1.08
			c-0.056,0.33-0.21,0.643-0.319,0.963c0.397,0.016,0.827,0.135,1.188,0.027c1.202-0.359,1.913,0.123,2.023,1.354
			C36.521,18.902,35.846,19.502,35.129,20.124z M19.471,42.796c0.238-0.271,0.436-0.677,0.73-0.767
			c0.212-0.066,0.553,0.289,1.065,0.59c-0.467,0.359-0.726,0.716-0.986,0.716C20.012,43.335,19.74,42.99,19.471,42.796z
			 M20.225,45.078c0.293-0.242,0.563-0.633,0.885-0.678c0.228-0.035,0.523,0.395,0.959,0.762c-0.514,0.326-0.839,0.691-1.152,0.682
			C20.678,45.836,20.455,45.352,20.225,45.078z M21.6,48.039c-0.318-0.098-0.542-0.498-0.806-0.771
			c0.263-0.215,0.514-0.578,0.791-0.599c0.257-0.021,0.542,0.327,1.017,0.65C22.124,47.68,21.789,48.097,21.6,48.039z
			 M22.826,54.287c0.305-0.27,0.575-0.648,0.931-0.764c0.169-0.055,0.501,0.389,0.944,0.766c-0.506,0.313-0.82,0.656-1.132,0.653
			C23.32,54.939,23.074,54.521,22.826,54.287z M23.779,56.694c-0.013-0.249,0.47-0.714,0.76-0.736
			c0.274-0.021,0.584,0.408,1.064,0.784c-0.498,0.371-0.838,0.809-1.088,0.762C24.212,57.447,23.795,56.994,23.779,56.694z
			 M25.085,59.51c-0.278,0.012-0.749-0.399-0.81-0.691c-0.053-0.254,0.354-0.603,0.7-1.119c0.407,0.478,0.849,0.774,0.831,1.037
			C25.786,59.029,25.354,59.5,25.085,59.51z M48.811,57.494c-1.098,0-2.195,0.033-3.291-0.005c-3.253-0.11-6.509-0.401-9.756-0.323
			c-2.221,0.053-4.426,0.618-6.644,0.92c-0.313,0.042-0.653-0.109-0.979-0.172c0.266-0.27,0.492-0.713,0.805-0.785
			c4.268-0.999,8.58-1.506,12.974-1.076c1.56,0.152,3.136,0.162,4.693,0.332c0.774,0.086,1.524,0.387,2.286,0.59
			C48.869,57.148,48.84,57.322,48.811,57.494z M41.258,46.813c-0.998-0.04-2.399,0.021-2.486-1.772
			c-0.087-1.787,0.697-2.51,2.497-2.506c1.78,0.006,2.604,0.795,2.591,2.483C43.848,46.338,43.245,46.805,41.258,46.813z
			 M41.77,52.994c-2.441,0.113-3.028-0.382-3.215-2.563c-0.136-1.588,0.399-2.41,2.07-2.473c2.479-0.093,2.874,0.246,3.021,2.959
			C43.961,52.365,43.205,52.93,41.77,52.994z M41.729,40.612c-3.225-0.827-6.365-0.427-9.523,0.394
			c-0.545,0.141-1.231-0.27-1.853-0.426c0.471-0.385,0.921-1.074,1.417-1.111c3.422-0.259,6.855-0.455,10.285-0.497
			c0.728-0.009,1.464,0.69,2.196,1.063c-0.093,0.238-0.183,0.476-0.275,0.714C43.225,40.711,42.441,40.795,41.729,40.612z
			 M33.68,46.798c-1.305,0.089-2.116-0.378-2.139-1.817c-0.022-1.634,0.814-2.425,2.656-2.465c2.013-0.045,2.674,0.463,2.713,2.077
			C36.951,46.184,36.135,46.741,33.68,46.798z M36.658,50.258c-0.053,1.701-1.018,2.63-2.805,2.561
			c-1.641-0.063-2.159-1.137-2.221-2.567c-0.064-1.584,0.781-2.255,2.965-2.265C36.168,47.771,36.709,48.689,36.658,50.258z
			 M53.512,46.84c-0.342-0.059-0.621-0.497-0.926-0.773c0.275-0.258,0.533-0.693,0.831-0.725c0.298-0.03,0.636,0.348,1.17,0.68
			C54.093,46.42,53.759,46.883,53.512,46.84z M53.856,44.271c-0.349-0.059-0.631-0.496-0.941-0.773
			c0.268-0.264,0.515-0.711,0.808-0.743c0.299-0.034,0.643,0.341,1.168,0.657C54.419,43.826,54.092,44.313,53.856,44.271z
			 M38.021,22.147c6.306,5.077,12.634,10.123,18.954,15.179c0.033,0.027,0.079,0.048,0.096,0.082c0.202,0.409,0.4,0.822,0.599,1.232
			c-0.445-0.08-0.989-0.021-1.317-0.26c-1.434-1.053-2.809-2.188-4.201-3.298c-4.805-3.829-9.611-7.657-14.406-11.501
			c-0.592-0.473-1.031-0.338-1.566,0.096c-3.691,2.982-7.393,5.955-11.105,8.912c-2.219,1.77-4.457,3.516-6.708,5.246
			c-0.392,0.3-0.893,0.459-1.343,0.684c-0.096-0.123-0.189-0.246-0.285-0.368c0.406-0.431,0.771-0.909,1.223-1.28
			c5.02-4.105,10.053-8.194,15.081-12.288c0.985-0.804,1.973-1.604,2.949-2.419C36.67,21.598,37.273,21.547,38.021,22.147z"/>
	</g>
</g>
<g id="Layer_2">
</g>
</svg>
