<?xml version="1.0" encoding="utf-8"?>
<!-- Generator: Adobe Illustrator 16.0.0, SVG Export Plug-In . SVG Version: 6.00 Build 0)  -->
<!DOCTYPE svg PUBLIC "-//W3C//DTD SVG 1.1//EN" "http://www.w3.org/Graphics/SVG/1.1/DTD/svg11.dtd">
<svg version="1.1" xmlns="http://www.w3.org/2000/svg" xmlns:xlink="http://www.w3.org/1999/xlink" x="0px" y="0px"
	 width="45.678px" height="52.021px" viewBox="0 0 45.678 52.021" enable-background="new 0 0 45.678 52.021" xml:space="preserve">
<g id="Layer_1">
	<path fill-rule="evenodd" clip-rule="evenodd" fill="#FFFFFF" d="M15.103,1.791c0.288-0.677,0.775-1.122,1.407-1.287
		c0.872-0.227,1.773-0.403,2.672-0.453c1.325-0.076,2.66-0.057,3.988-0.006c0.713,0.028,1.431,0.153,2.126,0.321
		c0.952,0.229,1.437,0.916,1.448,2.054c0.012,1.38-0.053,2.76-0.065,4.141c-0.015,1.393-0.048,2.786,0.013,4.177
		c0.021,0.507,0.219,1.04,0.461,1.495c0.299,0.563,0.785,0.678,1.271,0.273c0.636-0.529,1.248-1.117,1.746-1.773
		c1.926-2.543,3.392-5.346,4.568-8.304c0.102-0.253,0.24-0.499,0.394-0.727c0.212-0.314,0.53-0.452,0.909-0.458
		c2.647-0.023,5.295-0.057,7.941-0.067c0.336-0.001,0.682,0.069,1.003,0.169c0.519,0.159,0.8,0.603,0.654,1.124
		c-0.188,0.675-0.401,1.36-0.718,1.981c-1.056,2.073-2.499,3.891-3.893,5.74c-0.799,1.061-1.62,2.109-2.357,3.211
		c-0.748,1.117-0.705,1.764,0.209,2.753c0.902,0.976,1.905,1.854,2.848,2.793c1.348,1.339,2.677,2.7,3.588,4.395
		c0.164,0.306,0.291,0.651,0.344,0.992c0.068,0.441-0.111,0.868-0.508,1.067c-0.476,0.238-1,0.499-1.512,0.52
		c-2.215,0.082-4.432,0.094-6.648,0.1c-1.08,0.002-2.038-0.446-2.808-1.15c-1.006-0.92-1.905-1.955-2.859-2.933
		c-0.504-0.516-0.993-1.054-1.549-1.507c-0.986-0.805-1.89-0.584-2.461,0.563c-0.485,0.974-0.573,2.036-0.62,3.1
		c-0.049,1.118-0.48,1.553-1.593,1.555c-1.229,0.002-2.457,0.025-3.685-0.008c-1.97-0.055-3.816-0.619-5.581-1.467
		c-2.454-1.178-4.438-2.935-6.144-5.031c-2.971-3.648-5.284-7.705-7.404-11.88C1.568,5.847,0.9,4.404,0.238,2.958
		C-0.381,1.607,0.285,1.225,1.33,1.191c2.229-0.068,4.459-0.057,6.688-0.016c0.846,0.016,1.395,0.554,1.71,1.343
		c1.054,2.637,2.382,5.131,3.968,7.483c0.43,0.641,0.909,1.25,1.407,1.838c0.249,0.293,0.567,0.547,0.899,0.748
		c0.6,0.363,1.193,0.203,1.427-0.454c0.243-0.683,0.46-1.415,0.479-2.129c0.052-1.757-0.012-3.516-0.044-5.272
		c-0.004-0.263-0.089-0.523-0.14-0.782c-0.232-1.183-1.009-1.789-2.137-2.022c-0.1-0.02-0.198-0.039-0.296-0.063
		C15.244,1.852,15.199,1.829,15.103,1.791z"/>
	<path fill-rule="evenodd" clip-rule="evenodd" fill="#C6C7C8" d="M15.103,27.791c0.288-0.677,0.775-1.122,1.407-1.287
		c0.872-0.227,1.773-0.403,2.672-0.453c1.325-0.076,2.66-0.057,3.988-0.006c0.713,0.028,1.431,0.153,2.126,0.321
		c0.952,0.229,1.437,0.916,1.448,2.054c0.012,1.38-0.053,2.76-0.065,4.141c-0.015,1.393-0.048,2.786,0.013,4.177
		c0.021,0.507,0.219,1.04,0.461,1.495c0.299,0.563,0.785,0.678,1.271,0.273c0.636-0.529,1.248-1.117,1.746-1.773
		c1.926-2.543,3.392-5.346,4.568-8.304c0.102-0.253,0.24-0.499,0.394-0.727c0.212-0.314,0.53-0.452,0.909-0.458
		c2.647-0.023,5.295-0.057,7.941-0.067c0.336-0.001,0.682,0.069,1.003,0.169c0.519,0.159,0.8,0.603,0.654,1.124
		c-0.188,0.675-0.401,1.36-0.718,1.981c-1.056,2.073-2.499,3.891-3.893,5.74c-0.799,1.061-1.62,2.109-2.357,3.211
		c-0.748,1.117-0.705,1.764,0.209,2.753c0.902,0.976,1.905,1.854,2.848,2.793c1.348,1.339,2.677,2.7,3.588,4.395
		c0.164,0.306,0.291,0.651,0.344,0.992c0.068,0.441-0.111,0.868-0.508,1.067c-0.476,0.238-1,0.499-1.512,0.52
		c-2.215,0.082-4.432,0.094-6.648,0.1c-1.08,0.002-2.038-0.446-2.808-1.15c-1.006-0.92-1.905-1.955-2.859-2.933
		c-0.504-0.516-0.993-1.054-1.549-1.507c-0.986-0.805-1.89-0.584-2.461,0.563c-0.485,0.974-0.573,2.036-0.62,3.1
		c-0.049,1.118-0.48,1.553-1.593,1.555c-1.229,0.002-2.457,0.025-3.685-0.008c-1.97-0.055-3.816-0.619-5.581-1.467
		c-2.454-1.178-4.438-2.935-6.144-5.031c-2.971-3.648-5.284-7.705-7.404-11.88c-0.721-1.416-1.389-2.858-2.051-4.305
		c-0.619-1.351,0.047-1.733,1.092-1.767c2.229-0.068,4.459-0.057,6.688-0.016c0.846,0.016,1.395,0.554,1.71,1.343
		c1.054,2.637,2.382,5.131,3.968,7.483c0.43,0.641,0.909,1.25,1.407,1.838c0.249,0.293,0.567,0.547,0.899,0.748
		c0.6,0.363,1.193,0.203,1.427-0.454c0.243-0.683,0.46-1.415,0.479-2.129c0.052-1.757-0.012-3.516-0.044-5.272
		c-0.004-0.263-0.089-0.523-0.14-0.782c-0.232-1.183-1.009-1.789-2.137-2.022c-0.1-0.02-0.198-0.039-0.296-0.063
		C15.244,27.852,15.199,27.829,15.103,27.791z"/>
</g>
<g id="Layer_2">
</g>
</svg>
